<svg width="55" height="55" viewBox="0 0 55 55" fill="none" xmlns="http://www.w3.org/2000/svg">
<g clip-path="url(#clip0_23_281)">
<path d="M18.9062 21.4844H15.4688V46.4062H18.9062V21.4844Z" fill="#506C7F"/>
<path d="M29.2188 21.4844H25.7812V46.4062H29.2188V21.4844Z" fill="#506C7F"/>
<path d="M39.5312 21.4844H36.0938V46.4062H39.5312V21.4844Z" fill="#506C7F"/>
<path d="M44.6875 21.4844H41.25V46.4062H44.6875V21.4844Z" fill="#B4CCB9"/>
<path d="M24.0625 21.4844H20.625V46.4062H24.0625V21.4844Z" fill="#B4CCB9"/>
<path d="M34.375 21.4844H30.9375V46.4062H34.375V21.4844Z" fill="#B4CCB9"/>
<path d="M13.75 21.4844H10.3125V46.4062H13.75V21.4844Z" fill="#B4CCB9"/>
<path d="M6.875 48.125C5.92625 48.125 5.15625 48.895 5.15625 49.8438H49.8438C49.8438 48.895 49.0746 48.125 48.125 48.125H6.875Z" fill="#F9EBB2"/>
<path d="M51.5625 51.5625H3.4375C2.48875 51.5625 1.71875 52.3325 1.71875 53.2812H53.2812C53.2812 52.3325 52.5121 51.5625 51.5625 51.5625Z" fill="#F9EBB2"/>
<path d="M3.43753 19.7656H51.5625C52.3299 19.7656 53.0097 19.2491 53.2177 18.5101C53.4239 17.771 53.1103 16.9761 52.4537 16.5782L28.3912 1.96883C28.1231 1.80469 27.8137 1.71875 27.5 1.71875C27.1846 1.71875 26.877 1.80469 26.6089 1.96797L2.54464 16.5782C1.88807 16.9761 1.5744 17.771 1.78151 18.5092C1.98948 19.2491 2.6701 19.7656 3.43753 19.7656Z" fill="#F9EBB2"/>
<path d="M51.5625 49.8438C51.5625 47.9454 50.0234 46.4062 48.125 46.4062H46.4062V21.4844H51.5625C53.1051 21.4844 54.4577 20.4583 54.8728 18.9733C55.2887 17.4883 54.6648 15.9087 53.3474 15.1087L29.2849 0.499297C28.7366 0.165859 28.1179 0 27.5 0C26.8821 0 26.2642 0.165859 25.7159 0.499297L1.65344 15.1087C0.336016 15.9087 -0.28875 17.4891 0.128047 18.9733C0.543125 20.4583 1.89664 21.4844 3.4375 21.4844H8.59375V46.4062H6.875C4.97664 46.4062 3.4375 47.9454 3.4375 49.8438C1.53914 49.8438 0 51.3829 0 53.2812V55H55V53.2812C55 51.3829 53.4609 49.8438 51.5625 49.8438ZM3.4375 19.7656C2.67008 19.7656 1.98945 19.2491 1.78234 18.5092C1.57523 17.771 1.88891 16.9761 2.54547 16.5782L26.608 1.96797C26.877 1.80469 27.1863 1.71875 27.5 1.71875C27.8154 1.71875 28.123 1.80469 28.3929 1.96883L52.4554 16.5782C53.112 16.9761 53.4256 17.771 53.2177 18.5101C53.0114 19.2491 52.3299 19.7656 51.5625 19.7656H3.4375ZM44.6875 21.4844V46.4062H41.25V21.4844H44.6875ZM39.5312 21.4844V46.4062H36.0938V21.4844H39.5312ZM34.375 21.4844V46.4062H30.9375V21.4844H34.375ZM29.2188 21.4844V46.4062H25.7812V21.4844H29.2188ZM24.0625 21.4844V46.4062H20.625V21.4844H24.0625ZM18.9062 21.4844V46.4062H15.4688V21.4844H18.9062ZM13.75 21.4844V46.4062H10.3125V21.4844H13.75ZM6.875 48.125H48.125C49.0746 48.125 49.8438 48.895 49.8438 49.8438H5.15625C5.15625 48.895 5.92625 48.125 6.875 48.125ZM1.71875 53.2812C1.71875 52.3325 2.48875 51.5625 3.4375 51.5625H51.5625C52.5121 51.5625 53.2812 52.3325 53.2812 53.2812H1.71875Z" fill="#394240"/>
<path d="M27.5 7.73438C25.1264 7.73438 23.2031 9.65766 23.2031 12.0312C23.2031 14.4048 25.1264 16.3281 27.5 16.3281C29.8736 16.3281 31.7969 14.4048 31.7969 12.0312C31.7969 9.65766 29.8736 7.73438 27.5 7.73438ZM27.5 14.6094C26.0769 14.6094 24.9219 13.4552 24.9219 12.0312C24.9219 10.6073 26.0769 9.45312 27.5 9.45312C28.9248 9.45312 30.0781 10.6073 30.0781 12.0312C30.0781 13.4552 28.9248 14.6094 27.5 14.6094Z" fill="#394240"/>
<path d="M27.5 14.6094C28.9239 14.6094 30.0781 13.4551 30.0781 12.0312C30.0781 10.6074 28.9239 9.45312 27.5 9.45312C26.0761 9.45312 24.9219 10.6074 24.9219 12.0312C24.9219 13.4551 26.0761 14.6094 27.5 14.6094Z" fill="#F76D57"/>
</g>
<defs>
<clipPath id="clip0_23_281">
<rect width="55" height="55" fill="white"/>
</clipPath>
</defs>
</svg>
