<svg width="55" height="55" viewBox="0 0 55 55" fill="none" xmlns="http://www.w3.org/2000/svg">
<g clip-path="url(#clip0_23_128)">
<path d="M51.0469 52.5786V26.2893H38.9297V18.7945H16.0703V26.2893H10.4844V7.55241H15.5977V1.26834H10.4844V0H9.53906V1.26834V7.49476V26.2317H4.21094H3.95312V52.521H0V55H55V52.521H51.0469V52.5786ZM45.4609 36.9549H43.1406V33.8417H45.4609V36.9549ZM41.25 33.7841V36.8973H38.9297V33.7841H41.25ZM16.0703 36.9549H13.75V33.8417H16.0703V36.9549ZM11.9023 33.7841V36.8973H9.58203V33.7841H11.9023ZM9.53906 52.5786V39.434H11.8594V52.5786H9.53906ZM13.75 52.5786V39.434H16.0703V52.5786H13.75ZM19.3359 52.5786V26.2893H22.6016V52.5786H19.3359ZM25.8672 52.5786V26.2893H29.1328V52.5786H25.8672ZM32.3984 52.5786V26.2893H35.6641V52.5786H32.3984ZM38.9297 52.5786V39.434H41.25V52.5786H38.9297ZM43.0977 52.5786V39.434H45.418V52.5786H43.0977Z" fill="#FFF082"/>
</g>
<defs>
<clipPath id="clip0_23_128">
<rect width="55" height="55" fill="white"/>
</clipPath>
</defs>
</svg>
