<svg width="31" height="30" viewBox="0 0 31 30" fill="none" xmlns="http://www.w3.org/2000/svg">
<g clip-path="url(#clip0_23_363)">
<path d="M27.8765 9.25201L24.3 6.6975V0H4.7V6.6975L1.12349 9.25201C0.733789 9.52998 0.5 9.9985 0.5 10.5V28.5C0.5 29.3285 1.12672 30 1.9 30H27.1C27.8733 30 28.5 29.3285 28.5 28.5V10.5C28.5 9.9985 28.2662 9.52998 27.8765 9.25201ZM24.3 8.50002L26.4654 10.0465L24.3 11.548V8.50002ZM6.1 1.5H22.9V12.5185L14.5 18.342L6.1 12.5185V1.5ZM4.7 8.50002V11.548L2.53465 10.047L4.7 8.50002ZM27.1 28.5H1.9V11.3935L13.2115 19.2355L2.92014 26.37C2.59535 26.5955 2.50249 27.06 2.71249 27.407C2.84598 27.63 3.07091 27.75 3.30049 27.75C3.43114 27.75 3.56228 27.7105 3.67991 27.63L14.5 20.1285L25.3201 27.63C25.4377 27.7105 25.5689 27.75 25.6996 27.75C25.9291 27.75 26.1541 27.63 26.2881 27.407C26.4981 27.06 26.4047 26.5955 26.0804 26.37L15.7889 19.235L27.1 11.3935V28.5Z" fill="#27356F"/>
<path d="M23 3H8V4.5H23V3Z" fill="#27356F"/>
<path d="M23 6H8V7.5H23V6Z" fill="#27356F"/>
<path d="M15.5 9H8V10.5H15.5V9Z" fill="#27356F"/>
</g>
<defs>
<clipPath id="clip0_23_363">
<rect width="30" height="30" fill="white" transform="translate(0.5)"/>
</clipPath>
</defs>
</svg>
