<svg width="51" height="50" viewBox="0 0 51 50" fill="none" xmlns="http://www.w3.org/2000/svg">
<g clip-path="url(#clip0_23_335)">
<rect width="50" height="50" transform="translate(0.5)" fill="white"/>
<path d="M49.3866 15.42L43 11.1625V0H8V11.1625L1.61338 15.42C0.91748 15.8833 0.5 16.6642 0.5 17.5V47.5C0.5 48.8809 1.61914 50 3 50H48C49.3809 50 50.5 48.8809 50.5 47.5V17.5C50.5 16.6642 50.0825 15.8833 49.3866 15.42ZM43 14.1667L46.8667 16.7442L43 19.2467V14.1667ZM10.5 2.5H40.5V20.8642L25.5 30.57L10.5 20.8642V2.5ZM8 14.1667V19.2467L4.1333 16.745L8 14.1667ZM48 47.5H3V18.9892L23.1991 32.0592L4.82168 43.95C4.2417 44.3259 4.07588 45.1 4.45088 45.6783C4.68926 46.05 5.09092 46.25 5.50088 46.25C5.73418 46.25 5.96836 46.1842 6.17842 46.05L25.5 33.5475L44.8217 46.05C45.0316 46.1842 45.2658 46.25 45.4992 46.25C45.9092 46.25 46.3108 46.05 46.5501 45.6783C46.9251 45.1 46.7584 44.3258 46.1793 43.95L27.8017 32.0583L48 18.9892V47.5Z" fill="#27356F"/>
<path d="M38 5H13V7.5H38V5Z" fill="#27356F"/>
<path d="M38 10H13V12.5H38V10Z" fill="#27356F"/>
<path d="M25.5 15H13V17.5H25.5V15Z" fill="#27356F"/>
</g>
<defs>
<clipPath id="clip0_23_335">
<rect width="50" height="50" fill="white" transform="translate(0.5)"/>
</clipPath>
</defs>
</svg>
