<svg width="80" height="80" viewBox="0 0 80 80" fill="none" xmlns="http://www.w3.org/2000/svg">
<path fill-rule="evenodd" clip-rule="evenodd" d="M39.9814 51.6667C46.4247 51.6667 51.6481 46.4434 51.6481 40C51.6481 33.5567 46.4247 28.3334 39.9814 28.3334C33.5381 28.3334 28.3147 33.5567 28.3147 40C28.3147 46.4434 33.5381 51.6667 39.9814 51.6667ZM39.9814 44.9814C37.2304 44.9814 35.0001 42.751 35.0001 40C35.0001 37.249 37.2304 35.0187 39.9814 35.0187C42.7324 35.0187 44.9627 37.249 44.9627 40C44.9627 42.751 42.7324 44.9814 39.9814 44.9814Z" fill="white"/>
<path fill-rule="evenodd" clip-rule="evenodd" d="M40.0001 16.6666C23.9627 16.6666 13.0558 25.3635 7.29779 31.5992C2.85809 36.4073 2.8581 43.5926 7.29779 48.4006C13.0558 54.6366 23.9627 63.3333 40.0001 63.3333C56.0374 63.3333 66.9444 54.6366 72.7024 48.4006C77.1421 43.5926 77.1421 36.4073 72.7024 31.5992C66.9444 25.3635 56.0374 16.6666 40.0001 16.6666ZM12.1957 36.122C17.2945 30.6 26.5564 23.3333 40.0001 23.3333C53.4438 23.3333 62.7058 30.6 67.8044 36.122C69.8858 38.376 69.8858 41.624 67.8044 43.878C62.7058 49.4 53.4438 56.6666 40.0001 56.6666C26.5564 56.6666 17.2945 49.4 12.1957 43.878C10.1143 41.624 10.1143 38.376 12.1957 36.122Z" fill="white"/>
</svg>
