<svg width="55" height="55" viewBox="0 0 55 55" fill="none" xmlns="http://www.w3.org/2000/svg">
<g clip-path="url(#clip0_23_196)">
<path d="M17.9093 9.35229C17.4591 9.66456 16.9491 9.84214 16.4086 9.84214C15.8681 9.84214 15.3582 9.66469 14.908 9.35229V9.99946L16.4086 12.9367L17.9093 9.99946V9.35229Z" fill="#C69C6D"/>
<path d="M16.7216 13.6985V29.3692H20.7813V17.4913C20.7813 17.4227 20.7964 17.3947 20.7987 17.3885L22.6053 12.2021C22.2082 11.8468 21.6584 11.5238 20.8949 11.3258C20.8872 11.3238 19.9595 11.0044 19.9595 11.0044L19.8686 13.0996C19.8641 13.2034 19.8083 13.2982 19.7197 13.3526C19.6698 13.3832 19.6131 13.3987 19.5562 13.3987C19.5121 13.3987 19.4679 13.3893 19.4267 13.3706L17.3682 12.4329L16.7216 13.6985Z" fill="#F9EBB2"/>
<path d="M27.5011 25.73C27.1716 25.73 26.8535 25.6691 26.5534 25.5569C26.5343 25.6272 26.4913 25.6886 26.4316 25.7305C26.5818 25.9608 26.988 26.1645 27.4966 26.1645C27.4982 26.1645 27.4995 26.1647 27.5011 26.1645C27.5026 26.1645 27.5043 26.1645 27.5056 26.1645C28.0142 26.1645 28.4204 25.9608 28.5706 25.7305C28.511 25.6886 28.4681 25.6273 28.4488 25.5569C28.1488 25.6691 27.8306 25.73 27.5011 25.73Z" fill="#F9EBB2"/>
<path d="M17.6531 11.8754L19.2641 12.6092L19.3427 10.7916L18.3768 10.4587L17.6531 11.8754Z" fill="#F9EBB2"/>
<path d="M23.1698 26.3741C23.4677 26.1311 23.8443 25.9254 24.3207 25.8142L25.9398 25.2523V25.2394C24.929 24.5589 24.2419 23.2395 24.2419 21.7265C24.2419 20.42 24.4481 19.8434 24.662 19.3537L23.6271 14.0761C23.625 14.0654 23.5495 13.3855 23.0824 12.7329L21.417 17.5138L23.1698 26.3741Z" fill="#F9EBB2"/>
<path d="M14.4197 2.50885C14.4197 2.33614 14.5596 2.1962 14.7323 2.1962H14.7326C14.9053 2.1962 15.0452 2.33614 15.0452 2.50885C15.0452 2.75396 15.5763 3.10999 16.4087 3.10999C17.2411 3.10999 17.7722 2.75396 17.7722 2.50885C17.7722 2.33614 17.9121 2.1962 18.0848 2.1962H18.0851C18.2578 2.1962 18.3977 2.33614 18.3977 2.50885C18.3977 3.28307 18.6237 3.7414 19.0691 3.87859V2.28062C19.0698 2.25023 19.0754 1.75501 18.6463 1.31656C18.1975 0.857849 17.4445 0.625244 16.4087 0.625244C15.3728 0.625244 14.6199 0.857849 14.1709 1.31656C13.7419 1.75501 13.7475 2.25023 13.748 2.27111V3.87847C14.1937 3.74153 14.4197 3.28307 14.4197 2.50885Z" fill="#754C24"/>
<path d="M15.1642 11.8754L14.4405 10.4587L13.4746 10.7916L13.5533 12.6092L15.1642 11.8754Z" fill="#F9EBB2"/>
<path d="M6.51402 30.3759C6.48488 30.6005 6.54503 30.8237 6.68347 31.0038C6.82203 31.1838 7.02225 31.2989 7.24747 31.3282C7.47232 31.3573 7.69593 31.2973 7.87588 31.1587C8.05584 31.0202 8.17114 30.8198 8.2004 30.5946C8.20165 30.586 8.20303 30.5774 8.20491 30.5689L8.40149 29.6587H6.60856L6.51402 30.3759Z" fill="#C69C6D"/>
<path d="M16.4086 9.21657C17.418 9.21657 18.0015 8.45823 18.0095 8.45085C18.6526 7.75779 19.0692 6.65879 19.0692 5.42348V4.52107C18.4666 4.4189 18.0544 4.01259 17.8749 3.35229C17.5169 3.5899 17.0018 3.73509 16.4086 3.73509C15.8156 3.73509 15.3005 3.5899 14.9423 3.35229C14.7629 4.01259 14.3508 4.4189 13.748 4.52107V5.42348C13.748 6.65892 14.1646 7.75791 14.8078 8.45085C14.8158 8.45823 15.3993 9.21657 16.4086 9.21657ZM17.534 5.5274C17.6504 5.4111 17.8593 5.4111 17.9755 5.5274C18.0342 5.58493 18.068 5.66497 18.068 5.7475C18.068 5.83004 18.0342 5.91133 17.9755 5.96885C17.9179 6.02763 17.8366 6.06014 17.7554 6.06014C17.6728 6.06014 17.5914 6.02763 17.534 5.96885C17.4752 5.91133 17.4415 5.83004 17.4415 5.7475C17.4415 5.66497 17.4752 5.58493 17.534 5.5274ZM15.5985 7.26481C15.7455 7.26481 15.8688 7.36624 15.9023 7.5028C15.963 7.54031 16.1364 7.60522 16.4086 7.60522C16.6809 7.60522 16.8541 7.54019 16.915 7.5028C16.9485 7.36611 17.0718 7.26481 17.2187 7.26481C17.3914 7.26481 17.5314 7.40475 17.5314 7.57746C17.5314 7.962 17.0698 8.23063 16.4086 8.23063C15.7476 8.23063 15.2859 7.96213 15.2859 7.57746C15.2859 7.40475 15.4259 7.26481 15.5985 7.26481ZM14.8417 5.52615C14.9567 5.4111 15.1668 5.40985 15.283 5.52615C15.3419 5.58493 15.3743 5.66622 15.3743 5.7475C15.3743 5.83004 15.3418 5.91133 15.283 5.96885C15.2255 6.02763 15.1443 6.06014 15.0616 6.06014C14.9804 6.06014 14.8991 6.02763 14.8415 5.96885C14.7826 5.91133 14.749 5.83004 14.749 5.7475C14.749 5.66622 14.7828 5.58493 14.8417 5.52615Z" fill="#C69C6D"/>
<path d="M35.69 12.6614L37.7304 12.1717V10.5984C36.9759 9.91707 36.4791 8.76493 36.4791 7.46096V6.59945H36.4794C36.4793 6.45226 36.5832 6.32107 36.7329 6.29231C36.7557 6.28793 39.0056 5.8381 39.0056 4.3932V2.50635C38.447 2.53886 37.2302 2.70331 36.4072 3.49567C35.8376 4.04392 35.549 4.80876 35.549 5.76882C35.549 5.81922 35.5368 5.86899 35.5135 5.91364C35.486 5.96629 32.8538 11.0725 34.7748 12.9991C35.0472 12.8582 35.3503 12.7412 35.69 12.6614Z" fill="#E0BC4B"/>
<path d="M37.1044 6.84661V7.46088C37.1044 8.62491 37.5476 9.64337 38.2055 10.192C38.2298 10.2069 38.6451 10.6221 39.3182 10.6221C39.9916 10.6221 40.4067 10.2068 40.431 10.192C41.0889 9.64337 41.5321 8.62491 41.5321 7.46088V6.84661C41.0195 6.71029 39.873 6.32037 39.3182 5.45923C38.7635 6.32024 37.617 6.71017 37.1044 6.84661ZM38.012 7.90346C37.9295 7.90346 37.8495 7.86969 37.7907 7.81092C37.7332 7.75339 37.6994 7.67336 37.6994 7.59082C37.6994 7.50828 37.7333 7.42824 37.7907 7.36947C37.9057 7.25317 38.1158 7.25317 38.2334 7.36947C38.2909 7.42699 38.3245 7.50828 38.3245 7.59082C38.3245 7.67336 38.2908 7.75339 38.2334 7.81092C38.1746 7.86969 38.0946 7.90346 38.012 7.90346ZM40.4031 7.36947C40.5194 7.25317 40.7295 7.25317 40.8458 7.36947C40.9033 7.42824 40.9371 7.50828 40.9371 7.59082C40.9371 7.67336 40.9032 7.75339 40.8458 7.81217C40.787 7.86969 40.707 7.90346 40.6245 7.90346C40.5419 7.90346 40.4618 7.86969 40.403 7.81217C40.3455 7.75339 40.3118 7.67336 40.3118 7.59082C40.3119 7.50828 40.3456 7.42699 40.4031 7.36947ZM39.8564 9.02434C39.888 8.88528 40.0124 8.78136 40.1613 8.78136C40.334 8.78136 40.4739 8.9213 40.4739 9.094C40.4739 9.48668 39.9987 9.76093 39.3184 9.76093C38.6381 9.76093 38.1629 9.48668 38.1629 9.094C38.1629 8.9213 38.3028 8.78136 38.4755 8.78136C38.6243 8.78136 38.7487 8.88528 38.7804 9.02434C38.842 9.06436 39.0255 9.13564 39.3185 9.13564C39.6113 9.13564 39.7947 9.06423 39.8564 9.02434Z" fill="#E5CBBD"/>
<path d="M39.3182 11.2473C38.9804 11.2473 38.6564 11.1679 38.3556 11.0229V12.4182C38.3556 12.5628 38.2565 12.6885 38.1159 12.7222L36.6921 13.0639C36.8511 13.9265 37.8645 14.491 39.3182 14.491C40.7719 14.491 41.7853 13.9265 41.9443 13.0637L40.5205 12.7222C40.3799 12.6885 40.2808 12.5628 40.2808 12.4182V11.0229C39.98 11.1679 39.656 11.2473 39.3182 11.2473Z" fill="#E5CBBD"/>
<path d="M41.9031 6.2923C42.0531 6.32094 42.1571 6.45213 42.157 6.59944H42.1574V7.46096C42.1574 8.76492 41.6605 9.91707 40.9061 10.5984V12.1718L42.9479 12.6618C43.2871 12.7416 43.5899 12.8581 43.8619 12.999C45.7824 11.0723 43.1506 5.96641 43.1231 5.91376C43.0998 5.86911 43.0875 5.81934 43.0875 5.76894C43.0875 4.80888 42.7988 4.04416 42.2294 3.49579C41.4067 2.70356 40.1896 2.53923 39.631 2.50659V4.39332C39.6309 5.84348 41.8805 6.28805 41.9031 6.2923Z" fill="#E0BC4B"/>
<path d="M32.4901 27.1323L34.8774 19.2914C34.7827 19.1407 34.6997 18.9718 34.634 18.7824L32.77 17.9355L31.0039 25.9088C31.7476 26.1725 32.2101 26.6772 32.4901 27.1323Z" fill="#E5CBBD"/>
<path d="M26.2593 19.9289C26.3511 19.7826 26.544 19.7387 26.6902 19.8303C26.7315 19.8562 26.7638 19.8907 26.7879 19.9294L26.7888 19.9289L27.4331 20.9551H30.098C29.9122 19.1113 29.0243 18.1426 27.5012 18.1426C26.2945 18.1426 24.9045 19.2241 24.9045 20.9551H25.6149L26.2593 19.9289Z" fill="#B79870"/>
<path d="M27.5011 25.1046C28.9535 25.1046 30.1351 23.5893 30.1351 21.7266C30.1351 21.6771 30.1341 21.6289 30.1332 21.5804H27.2599C27.1524 21.5804 27.0523 21.5251 26.9952 21.4339L26.5237 20.6831L26.0522 21.4339C25.9951 21.5251 25.895 21.5804 25.7875 21.5804H24.8688C24.8679 21.6289 24.8669 21.6771 24.8669 21.7266C24.8673 23.5893 26.0489 25.1046 27.5011 25.1046ZM28.5041 22.08C28.6191 21.9637 28.8292 21.9637 28.9454 22.08C29.0043 22.1375 29.0367 22.2188 29.0367 22.3013C29.0367 22.3826 29.0042 22.4639 28.9454 22.5214C28.8879 22.5802 28.8067 22.6127 28.7241 22.6127C28.6428 22.6127 28.5615 22.5802 28.504 22.5214C28.4451 22.4639 28.4114 22.3826 28.4114 22.3013C28.4114 22.2188 28.4452 22.1375 28.5041 22.08ZM26.7649 23.525C26.901 23.525 27.0167 23.6118 27.0597 23.7332C27.1232 23.7645 27.2752 23.8089 27.4975 23.8089C27.4986 23.8089 27.4999 23.8089 27.501 23.8089C27.7252 23.8084 27.8783 23.7631 27.942 23.7314C27.9846 23.6097 28.1003 23.5224 28.2365 23.522C28.2367 23.522 28.237 23.522 28.2372 23.522C28.4095 23.522 28.5495 23.6615 28.5499 23.8339C28.5501 23.958 28.4967 24.1872 28.1357 24.328C27.9616 24.396 27.7366 24.4337 27.5023 24.4342C27.5006 24.4342 27.4989 24.4342 27.4971 24.4342C26.8727 24.4343 26.453 24.1951 26.4522 23.8384C26.4518 23.6657 26.5913 23.5255 26.7641 23.525C26.7646 23.525 26.7649 23.525 26.7649 23.525ZM26.0566 22.085C26.1729 21.9687 26.3818 21.9687 26.4993 22.085C26.5568 22.1438 26.5906 22.2238 26.5906 22.3063C26.5906 22.3876 26.5568 22.4689 26.4993 22.5264C26.4405 22.5852 26.3605 22.619 26.278 22.619C26.1954 22.619 26.1141 22.5852 26.0566 22.5264C25.9978 22.4689 25.9653 22.3889 25.9653 22.3063C25.9653 22.2238 25.998 22.1425 26.0566 22.085Z" fill="#F9EBB2"/>
<path d="M33.502 30.7476C33.4867 30.7751 33.4672 30.8001 33.444 30.8222L33.4789 30.9812C33.4865 30.9034 33.494 30.8256 33.502 30.7476Z" fill="#C69C6D"/>
<path d="M6.62517 29.0336H8.60319L9.1887 27.9578H6.54651L6.62517 29.0336Z" fill="#F9EBB2"/>
<path d="M32.2469 28.0996C32.2121 27.9816 32.1369 27.7665 31.9977 27.5259L30.996 30.4597L31.2911 31.3797L32.8664 30.4478C32.8664 30.4478 32.2483 28.1046 32.2469 28.0996Z" fill="#F9EBB2"/>
<path d="M32.8795 31.1665L31.6627 31.8865L33.7367 38.7354C33.7389 38.7429 33.7409 38.7504 33.7427 38.7579C33.7655 38.8606 33.8272 38.9483 33.9161 39.0047C34.0052 39.0612 34.1111 39.0795 34.2134 39.0566C34.3162 39.0336 34.4038 38.9719 34.4604 38.883C34.5168 38.7941 34.5353 38.6885 34.5123 38.5857L32.8795 31.1665Z" fill="#F9EBB2"/>
<path d="M36.6636 54.3748H39.0058V52.543H37.6408C37.5481 52.945 37.2992 53.711 36.6636 54.3748Z" fill="#998675"/>
<path d="M30.5256 26.4202C30.5144 26.4177 30.5033 26.4144 30.4925 26.4107L29.1617 25.949C28.9239 26.4378 28.2722 26.7899 27.5056 26.7899C27.5042 26.7899 27.503 26.7899 27.5017 26.7899C27.5014 26.7899 27.5009 26.7899 27.5005 26.7899C27.4992 26.7899 27.4979 26.7899 27.4966 26.7899C26.73 26.7899 26.0783 26.4378 25.8405 25.949L24.5098 26.4107C24.4989 26.4144 24.4879 26.4177 24.4766 26.4202C24.0459 26.5182 23.7172 26.7159 23.4672 26.9451L24.6316 30.3557C24.6333 30.3606 24.6436 30.3826 24.6436 30.4074C24.6436 30.416 24.7876 37.9053 24.7876 37.9053H30.2146L30.3539 30.451C30.3539 30.3906 30.3689 30.3608 30.3707 30.3558L31.5351 26.9452C31.2852 26.7159 30.9564 26.5181 30.5256 26.4202Z" fill="#F9EBB2"/>
<path d="M24.762 38.5304L24.0701 45.0347H26.7839L27.1897 40.3946C27.1899 40.3932 27.2029 40.1107 27.5015 40.1107C27.8003 40.1107 27.8124 40.393 27.8125 40.3944L28.2212 45.0346H30.9322L30.2402 38.5303H24.762V38.5304Z" fill="#5576A5"/>
<path d="M28.4977 45.6597L28.4952 52.9174H29.8606L30.2369 45.6597H28.4977Z" fill="#F9EBB2"/>
<path d="M39.6309 51.9175H40.9945C42.2155 45.2067 42.3979 40.4161 42.4249 39.1826H39.6307L39.6309 51.9175Z" fill="#E5CBBD"/>
<path d="M45.8669 17.9355L44.0028 18.7824C43.9369 18.9724 43.8536 19.1417 43.7585 19.2927L47.0234 30.0115C47.0256 30.0189 47.0275 30.0263 47.0293 30.0338C47.1193 30.4322 47.5165 30.6829 47.9151 30.5934C48.108 30.5498 48.2725 30.4337 48.3783 30.2664C48.4839 30.0992 48.5181 29.9007 48.4746 29.7079L45.8669 17.9355Z" fill="#E5CBBD"/>
<path d="M9.19002 14.0764L6.58997 27.3325H9.45789L11.4003 17.5141L9.73489 12.7332C9.26755 13.3859 9.19202 14.0664 9.19002 14.0764Z" fill="#F9EBB2"/>
<path d="M39.6309 52.5427V54.3746H41.9729C41.3373 53.7108 41.0884 52.9448 40.9957 52.5427H39.6309Z" fill="#998675"/>
<path d="M43.5285 16.1887C44.0394 16.6518 44.2016 17.3672 44.1543 18.0267L45.7286 17.3114L45.4376 15.9976C45.417 15.9085 44.8989 13.7624 42.8034 13.27L42.5566 13.2107C42.3307 14.3653 41.0864 15.1162 39.3182 15.1162C37.5499 15.1162 36.3057 14.3653 36.0798 13.2107L35.8343 13.2696C33.7278 13.7646 33.2036 15.9767 33.1986 15.999L32.908 17.3114L34.4822 18.0266C34.4349 17.3671 34.5971 16.6515 35.108 16.1885C35.2359 16.0724 35.4335 16.0822 35.5495 16.2102C35.6655 16.3381 35.6558 16.5358 35.5278 16.6518C35.0437 17.0907 35.0079 17.9506 35.2228 18.5731C35.3905 19.0588 35.6872 19.3742 35.9971 19.3964C36.1537 19.4076 36.2776 19.5332 36.2869 19.6899L36.3935 21.5021C36.3975 21.5711 36.3787 21.6396 36.3395 21.6968C35.169 23.4107 34.3372 27.3357 33.9336 33.0484C33.9336 33.0484 35.1358 38.5214 35.14 38.5572H44.9288C44.9066 36.5236 44.6758 25.1802 42.2963 21.6968C42.2573 21.6396 42.2383 21.5711 42.2423 21.5021L42.3491 19.6899C42.3584 19.5332 42.4823 19.4076 42.6389 19.3964C42.9489 19.3742 43.2456 19.0587 43.4132 18.5731C43.6282 17.9506 43.5924 17.0907 43.1083 16.6518C42.9803 16.5358 42.9706 16.3381 43.0866 16.2102C43.203 16.0825 43.4006 16.0725 43.5285 16.1887Z" fill="#F9EBB2"/>
<path d="M28.495 53.543L28.4948 54.3747H30.999C30.9711 54.182 30.903 53.9346 30.7393 53.7617C30.6005 53.615 30.4099 53.5435 30.1569 53.543H28.495Z" fill="#999999"/>
<path d="M37.6419 51.9175H39.0056V39.1826H36.2114C36.2386 40.4161 36.4209 45.2068 37.6419 51.9175Z" fill="#E5CBBD"/>
<path d="M20.7812 39.6864C20.7382 39.6824 20.6953 39.6763 20.6525 39.6668C20.3869 39.6074 20.1601 39.448 20.0142 39.2181C19.8683 38.9881 19.8207 38.7151 19.8802 38.4492L20.7813 34.3542V29.9944H12.0361V52.2073H15.0487L16.0962 32.0393C16.1051 31.8669 16.2525 31.7337 16.4247 31.7433C16.5862 31.7517 16.711 31.8815 16.7191 32.0394L16.7213 32.0393L17.7687 52.2073H20.7813L20.7812 39.6864Z" fill="#898785"/>
<path d="M22.7304 28.1941C22.7294 28.1984 22.1359 30.4476 22.1359 30.4476L23.7113 31.3795L24.0063 30.4595L23.0049 27.5256C22.8044 27.8723 22.7363 28.1676 22.7304 28.1941Z" fill="#F9EBB2"/>
<path d="M21.4002 34.4506C21.4002 34.451 21.4 34.4512 21.4 34.4516L20.4905 38.5846C20.4673 38.6884 20.4858 38.794 20.5422 38.883C20.5986 38.9719 20.6862 39.0336 20.789 39.0564C20.8918 39.0795 20.9975 39.0611 21.0865 39.0047C21.1754 38.9483 21.2371 38.8606 21.2601 38.7578C21.2617 38.7503 21.2637 38.7428 21.266 38.7354L23.3398 31.8863L22.1231 31.1665L21.4002 34.4506Z" fill="#F9EBB2"/>
<path d="M20.4107 52.8328H17.7845V54.3747H21.84C21.8122 54.0559 21.7157 53.5476 21.3913 53.2054C21.1534 52.9547 20.8327 52.8328 20.4107 52.8328Z" fill="#754C24"/>
<path d="M11.4241 53.2074C11.1035 53.5472 11.0065 54.0557 10.9783 54.3747H15.0329V52.8328H12.4067C11.9835 52.8328 11.6621 52.9553 11.4241 53.2074Z" fill="#754C24"/>
<path d="M24.8454 53.543C24.5924 53.5435 24.4019 53.615 24.2632 53.7617C24.0993 53.9348 24.0313 54.182 24.0033 54.3748H26.5076L26.5073 53.5431H24.8454V53.543Z" fill="#999999"/>
<path d="M12.036 17.4912V29.3691H16.0957V13.6985L15.4489 12.4327L13.3905 13.3703C13.3492 13.3891 13.3049 13.3985 13.2609 13.3985C13.204 13.3985 13.1475 13.383 13.0975 13.3523C13.0088 13.2979 12.953 13.2031 12.9485 13.0993L12.8576 11.0042C12.8576 11.0042 11.9301 11.3235 11.9223 11.3255C11.159 11.5236 10.6091 11.8465 10.2119 12.2018L12.0186 17.3883C12.0207 17.3944 12.036 17.4214 12.036 17.4912Z" fill="#F9EBB2"/>
<path d="M26.507 52.9174L26.5045 45.6597H24.7654L25.1417 52.9174H26.507Z" fill="#F9EBB2"/>
<path d="M38.4754 8.78149C38.3027 8.78149 38.1627 8.92143 38.1627 9.09414C38.1627 9.48681 38.6379 9.76106 39.3182 9.76106C39.9985 9.76106 40.4738 9.48681 40.4738 9.09414C40.4738 8.92143 40.3338 8.78149 40.1611 8.78149C40.0124 8.78149 39.8879 8.88542 39.8562 9.02448C39.7946 9.0645 39.6111 9.13578 39.3181 9.13578C39.0251 9.13578 38.8417 9.0645 38.78 9.02448C38.7486 8.88529 38.6242 8.78149 38.4754 8.78149Z" fill="#1C1B1A"/>
<path d="M38.3246 7.59105C38.3246 7.50851 38.2909 7.42722 38.2335 7.3697C38.1158 7.2534 37.9058 7.2534 37.7908 7.3697C37.7332 7.42847 37.6995 7.50851 37.6995 7.59105C37.6995 7.67359 37.7334 7.75362 37.7908 7.81115C37.8495 7.86992 37.9294 7.90369 38.0121 7.90369C38.0946 7.90369 38.1747 7.86992 38.2336 7.81115C38.2909 7.75362 38.3246 7.67359 38.3246 7.59105Z" fill="#1C1B1A"/>
<path d="M40.6246 7.90369C40.7071 7.90369 40.7872 7.86992 40.846 7.8124C40.9035 7.75362 40.9373 7.67359 40.9373 7.59105C40.9373 7.50851 40.9034 7.42847 40.846 7.3697C40.7297 7.2534 40.5196 7.2534 40.4033 7.3697C40.3458 7.42722 40.3121 7.50851 40.3121 7.59105C40.3121 7.67359 40.3459 7.75362 40.4033 7.8124C40.4619 7.86992 40.542 7.90369 40.6246 7.90369Z" fill="#1C1B1A"/>
<path d="M46.0478 15.861C46.0293 15.7796 45.6756 14.294 44.4024 13.338C46.3663 11.1473 44.047 6.35312 43.7124 5.6922C43.6967 4.5892 43.3428 3.69792 42.6598 3.04213C41.4092 1.84133 39.5043 1.86847 39.3179 1.87422C39.1267 1.86885 37.2252 1.84333 35.9767 3.04213C35.2937 3.69792 34.9398 4.58933 34.9241 5.6922C34.5895 6.35312 32.2699 11.1475 34.2342 13.3383C32.9606 14.2943 32.6071 15.7799 32.5885 15.8625L30.4055 25.7186L29.0624 25.2525V25.2398C30.0733 24.5592 30.7604 23.2398 30.7604 21.7267C30.7604 17.8013 28.4377 17.5174 27.5012 17.5174C26.9227 17.5174 25.8914 17.661 25.1436 18.5599L24.2436 13.9702C24.2163 13.7233 23.8907 11.4629 21.0639 10.7236L18.5345 9.85183V8.7886C19.2433 7.97748 19.6944 6.77044 19.6944 5.4237L19.6943 4.23679C19.6943 4.23642 19.6944 4.23617 19.6944 4.23579C19.6944 4.23554 19.6943 4.23517 19.6943 4.23492L19.6941 2.29304C19.6954 2.26202 19.7168 1.52757 19.1066 0.893404C18.5367 0.300511 17.6289 0 16.4086 0C15.1883 0 14.2806 0.300511 13.7107 0.893154C13.1005 1.52744 13.1219 2.2619 13.1229 2.28066V5.42358C13.1229 6.77031 13.5739 7.97736 14.2827 8.78848V9.85171L11.7533 10.7235C8.92651 11.4628 8.60086 13.7232 8.5736 13.9701C8.5736 13.9701 5.89802 27.6649 5.89827 27.6678L6.02032 29.3369L5.89389 30.2947C5.84312 30.6855 5.94754 31.0728 6.18802 31.3851C6.42851 31.6975 6.77604 31.8974 7.16684 31.9482C7.23162 31.9566 7.29602 31.9608 7.3603 31.9608C7.68383 31.9608 7.99672 31.8549 8.25733 31.6543C8.5661 31.4167 8.76506 31.0743 8.81871 30.689L9.08496 29.4564L9.98924 27.7946C9.99224 27.7891 11.4106 20.6826 11.4106 20.6826V29.6818C11.4106 29.6823 11.4109 29.6829 11.4109 29.6835C11.4109 29.684 11.4106 29.6847 11.4106 29.6853V52.4392C11.2473 52.5275 11.0997 52.6402 10.9693 52.7782C10.2828 53.5056 10.3408 54.6567 10.3435 54.7054C10.353 54.8708 10.49 55 10.6557 55H15.3453C15.518 55 15.6579 54.8601 15.6579 54.6874V52.5294L16.4085 38.0792L17.1591 52.5294V54.6874C17.1591 54.8601 17.299 55 17.4718 55H22.1614C22.3271 55 22.464 54.8708 22.4735 54.7054C22.4764 54.6567 22.5343 53.5056 21.8477 52.7782C21.7173 52.6401 21.5696 52.5274 21.4064 52.4392V39.5408C21.4113 39.5378 21.4164 39.5358 21.4213 39.5328C21.6478 39.3891 21.8057 39.1671 21.8672 38.9066L23.9105 32.1587C23.9409 32.1565 24.0371 32.1247 24.0539 32.1142L24.1677 38.2042L23.4113 45.3142C23.4021 45.4024 23.4304 45.4904 23.4897 45.5565C23.5491 45.6224 23.6335 45.66 23.7222 45.66H24.139L24.5169 52.9484C24.2341 53.0036 23.9958 53.133 23.8056 53.3354C23.3159 53.8564 23.3588 54.6717 23.3608 54.7062C23.3707 54.8713 23.5075 55.0003 23.6728 55.0003H26.8201C26.903 55.0003 26.9826 54.9672 27.0413 54.9087C27.1 54.8501 27.1327 54.7705 27.1327 54.6875L27.1322 53.2306V53.2305L27.1297 45.6544C27.2643 45.6285 27.3694 45.516 27.3817 45.3746L27.5022 43.9973L27.6236 45.3749C27.636 45.515 27.7394 45.6264 27.8723 45.6535L27.8697 53.2305V53.2306L27.8692 54.6875C27.8692 54.7704 27.9021 54.8499 27.9606 54.9087C28.0194 54.9674 28.0989 55.0003 28.1818 55.0003H31.3291C31.4945 55.0003 31.6313 54.8714 31.6412 54.7062C31.6433 54.6719 31.6862 53.8565 31.1963 53.3354C31.0061 53.133 30.7678 53.0036 30.485 52.9484L30.8629 45.66H31.2797C31.3684 45.66 31.4529 45.6224 31.5122 45.5565C31.5715 45.4906 31.5999 45.4025 31.5906 45.3142L30.8343 38.2042L30.9481 32.1142C30.965 32.1247 31.0611 32.1567 31.0914 32.1587L33.1348 38.9066C33.1962 39.1671 33.3542 39.3891 33.5807 39.5328C33.7461 39.6377 33.9338 39.6918 34.1249 39.6918C34.1997 39.6918 34.2747 39.6836 34.3494 39.6669C34.6153 39.6075 34.8419 39.4482 34.9878 39.2182C34.9952 39.2067 35.0011 39.1946 35.0079 39.1828H35.5857C35.6128 40.4353 35.7987 45.3591 37.0642 52.2359C37.0242 52.4761 36.7662 53.7164 35.6172 54.421C35.4979 54.4943 35.4418 54.6377 35.4796 54.7725C35.5177 54.9072 35.6406 55.0003 35.7805 55.0003H42.855C42.9949 55.0003 43.118 54.9072 43.1559 54.7725C43.1939 54.6377 43.1377 54.4943 43.0183 54.421C41.8689 53.716 41.6112 52.4751 41.5714 52.2356C42.8368 45.359 43.0227 40.4353 43.0498 39.1828H45.2434C45.4161 39.1828 45.5561 39.0429 45.5561 38.8702C45.5561 38.3227 45.5253 25.5087 42.8725 21.4346L42.9589 19.9664C43.0651 19.9319 43.1668 19.8807 43.2635 19.8167L46.4212 30.1837C46.5689 30.8111 47.1307 31.2371 47.7511 31.2371C47.8502 31.2371 47.9512 31.2262 48.052 31.2034C48.4079 31.123 48.7111 30.9089 48.906 30.6003C49.1009 30.2918 49.1641 29.9259 49.0838 29.5713L46.0478 15.861ZM39.6309 2.50638C40.1897 2.53902 41.4066 2.70335 42.2293 3.49558C42.7988 4.04383 43.0875 4.80868 43.0875 5.76873C43.0875 5.81913 43.0997 5.8689 43.123 5.91355C43.1505 5.9662 45.7824 11.0721 43.8618 12.9988C43.5898 12.8581 43.2871 12.7414 42.9478 12.6616L40.906 12.1716V10.5983C41.6604 9.91699 42.1573 8.76484 42.1573 7.46087V6.59936H42.1569C42.157 6.45204 42.053 6.32073 41.9031 6.29222C41.8803 6.28784 39.6308 5.84339 39.6308 4.39324L39.6309 2.50638ZM40.5207 12.7223L41.9444 13.0638C41.7855 13.9264 40.772 14.4911 39.3184 14.4911C37.8647 14.4911 36.8511 13.9265 36.6923 13.0639L38.1161 12.7223C38.2567 12.6885 38.3558 12.5628 38.3558 12.4182V11.023C38.6566 11.1679 38.9806 11.2473 39.3184 11.2473C39.6562 11.2473 39.9802 11.1679 40.2809 11.023V12.4182C40.2809 12.5628 40.3801 12.6885 40.5207 12.7223ZM39.3183 5.45934C39.873 6.32036 41.0195 6.71029 41.5321 6.84672V7.461C41.5321 8.62503 41.0889 9.64349 40.431 10.1921C40.4068 10.207 39.9914 10.6222 39.3183 10.6222C38.645 10.6222 38.2298 10.2069 38.2055 10.1921C37.5476 9.64349 37.1044 8.62503 37.1044 7.461V6.84672C37.617 6.71029 38.7635 6.32036 39.3183 5.45934ZM35.5135 5.91355C35.5368 5.8689 35.5491 5.81913 35.5491 5.76873C35.5491 4.80868 35.8378 4.04395 36.4072 3.49558C37.2302 2.7031 38.447 2.53877 39.0056 2.50626V4.39324C39.0056 5.83814 36.7557 6.28797 36.733 6.29235C36.5833 6.32098 36.4794 6.45217 36.4795 6.59948H36.4791V7.461C36.4791 8.76496 36.9759 9.91711 37.7304 10.5984V12.1718L35.69 12.6615C35.3503 12.7413 35.0472 12.8582 34.7748 12.9991C32.8538 11.0725 35.486 5.9662 35.5135 5.91355ZM32.7698 17.9355L34.6339 18.7824C34.6995 18.9717 34.7826 19.1407 34.8772 19.2914L32.4899 27.1323C32.2099 26.6772 31.7476 26.1726 31.0036 25.9088L32.7698 17.9355ZM32.8817 28.0548C32.88 28.0472 32.8771 28.0348 32.8735 28.0201L35.3713 19.8158C35.4685 19.8801 35.5706 19.9315 35.6771 19.9662L35.7635 21.4344C34.5507 23.2985 33.8888 27.0253 33.5273 30.501L32.8817 28.0548ZM33.502 30.7477C33.4941 30.8257 33.4865 30.9035 33.4789 30.9813L33.444 30.8223C33.4671 30.8002 33.4866 30.775 33.502 30.7477ZM27.5012 18.1426C29.0242 18.1426 29.912 19.1114 30.098 20.9551H27.433L26.7887 19.9289L26.7878 19.9294C26.7637 19.8906 26.7314 19.8562 26.6902 19.8303C26.544 19.7387 26.351 19.7826 26.2592 19.9289L25.6149 20.9551H24.9046C24.9046 19.2241 26.2945 18.1426 27.5012 18.1426ZM24.8691 21.5804H25.7878C25.8953 21.5804 25.9954 21.5251 26.0525 21.4339L26.524 20.6831L26.9954 21.4339C27.0526 21.5251 27.1526 21.5804 27.2602 21.5804H30.1335C30.1344 21.6289 30.1354 21.6771 30.1354 21.7266C30.1354 23.5893 28.9538 25.1046 27.5014 25.1046C26.0491 25.1046 24.8676 23.5893 24.8676 21.7266C24.8673 21.6772 24.8682 21.6289 24.8691 21.5804ZM28.5706 25.7303C28.4206 25.9606 28.0144 26.1643 27.5057 26.1643C27.5042 26.1643 27.5027 26.1643 27.5012 26.1643C27.4995 26.1645 27.4983 26.1643 27.4967 26.1643C26.9882 26.1643 26.582 25.9606 26.4317 25.7303C26.4913 25.6884 26.5342 25.6271 26.5535 25.5567C26.8535 25.6689 27.1716 25.7298 27.5012 25.7298C27.8307 25.7298 28.1488 25.6689 28.4488 25.5567C28.4681 25.6271 28.511 25.6885 28.5706 25.7303ZM23.6273 14.0764L24.6621 19.3539C24.4483 19.8436 24.2421 20.4202 24.2421 21.7267C24.2421 23.2398 24.9291 24.5591 25.94 25.2397V25.2525L24.3209 25.8144C23.8445 25.9256 23.4678 26.1312 23.17 26.3743L21.417 17.5142L23.0824 12.7333C23.5496 13.3857 23.6252 14.0656 23.6273 14.0764ZM21.5585 30.8223L21.4065 31.513V29.6853C21.4065 29.6848 21.4063 29.6842 21.4063 29.6835C21.4063 29.6831 21.4065 29.6824 21.4065 29.6818V20.6825L22.6436 26.9352C22.2655 27.4595 22.1391 27.9733 22.1207 28.0547L21.4711 30.5166C21.4414 30.6287 21.4772 30.745 21.5585 30.8223ZM19.5563 13.3987C19.6131 13.3987 19.6697 13.3832 19.7198 13.3525C19.8084 13.2981 19.8642 13.2033 19.8687 13.0996L19.9596 11.0044C19.9596 11.0044 20.8872 11.3237 20.8951 11.3257C21.6584 11.5238 22.2083 11.8469 22.6054 12.202L20.7988 17.3885C20.7965 17.3946 20.7814 17.4226 20.7814 17.4913V29.3692H16.7217V13.6986L17.3685 12.4327L19.4269 13.3704C19.468 13.3893 19.5122 13.3987 19.5563 13.3987ZM16.4086 12.9366L14.908 9.9994V9.35223C15.3582 9.6645 15.8682 9.84208 16.4086 9.84208C16.9491 9.84208 17.4591 9.66462 17.9093 9.35223V9.9994L16.4086 12.9366ZM19.3427 10.7918L19.2641 12.6093L17.6531 11.8755L18.3768 10.4589L19.3427 10.7918ZM14.1709 1.3166C14.6198 0.857888 15.3728 0.625283 16.4086 0.625283C17.4445 0.625283 18.1975 0.857888 18.6464 1.3166C19.0755 1.75504 19.0698 2.25027 19.0692 2.28066V3.8785C18.6238 3.74144 18.3978 3.28298 18.3978 2.50876C18.3978 2.33606 18.2579 2.19612 18.0852 2.19612H18.0849C17.9122 2.19612 17.7723 2.33606 17.7723 2.50876C17.7723 2.75387 17.2411 3.10991 16.4088 3.10991C15.5764 3.10991 15.0453 2.75387 15.0453 2.50876C15.0453 2.33606 14.9053 2.19612 14.7326 2.19612H14.7324C14.5597 2.19612 14.4197 2.33606 14.4197 2.50876C14.4197 3.28298 14.1938 3.74144 13.7482 3.8785V2.27115C13.7476 2.25027 13.7419 1.75504 14.1709 1.3166ZM13.7482 5.42358V4.52117C14.3508 4.419 14.763 4.01269 14.9425 3.35239C15.3005 3.59 15.8156 3.73519 16.4088 3.73519C17.0018 3.73519 17.5169 3.59 17.8751 3.35239C18.0544 4.01269 18.4666 4.419 19.0693 4.52117V5.42358C19.0693 6.65901 18.6528 7.75801 18.0096 8.45095C18.0017 8.45833 17.4182 9.21667 16.4088 9.21667C15.3994 9.21667 14.8159 8.45833 14.8079 8.45095C14.1648 7.75801 13.7482 6.65901 13.7482 5.42358ZM14.4405 10.4589L15.1642 11.8755L13.5532 12.6093L13.4746 10.7918L14.4405 10.4589ZM8.20494 30.5691C8.20306 30.5776 8.20168 30.5862 8.20043 30.5948C8.1713 30.8201 8.05599 31.0204 7.87591 31.159C7.69583 31.2975 7.47223 31.3576 7.2475 31.3284C7.02228 31.2992 6.82219 31.184 6.6835 31.004C6.54506 30.8241 6.48478 30.6008 6.51405 30.3761L6.60859 29.659H8.40165L8.20494 30.5691ZM8.60324 29.0336H6.62522L6.54656 27.9578H9.18876L8.60324 29.0336ZM9.45788 27.3325H6.58996L9.19001 14.0764C9.19201 14.0664 9.26754 13.3859 9.73475 12.7331L11.4001 17.514L9.45788 27.3325ZM10.212 12.202C10.6091 11.8467 11.1589 11.5237 11.9224 11.3257C11.9301 11.3237 12.8577 11.0044 12.8577 11.0044L12.9486 13.0996C12.9531 13.2033 13.0089 13.2981 13.0975 13.3525C13.1474 13.3832 13.2041 13.3987 13.261 13.3987C13.3051 13.3987 13.3493 13.3893 13.3905 13.3705L15.449 12.4329L16.0958 13.6987V29.3694H12.036V17.4915C12.036 17.4218 12.0208 17.3947 12.0187 17.3887L10.212 12.202ZM15.0328 54.3747H10.9782C11.0066 54.0558 11.1034 53.5472 11.424 53.2074C11.662 52.9552 11.9835 52.8326 12.4065 52.8326H15.0326L15.0328 54.3747ZM16.7212 32.0395L16.719 32.0396C16.7108 31.8817 16.5861 31.752 16.4247 31.7435C16.2525 31.7337 16.105 31.867 16.0961 32.0395L15.0487 52.2075H12.036V29.9946H20.7812V34.3544L19.8801 38.4494C19.8206 38.7151 19.8682 38.9883 20.0142 39.2182C20.1601 39.4482 20.3868 39.6075 20.6524 39.6669C20.6953 39.6764 20.7382 39.6826 20.7811 39.6866V52.2076H17.7685L16.7212 32.0395ZM21.84 54.3747H17.7845V52.8328H20.4107C20.8326 52.8328 21.1534 52.9547 21.3913 53.2054C21.7157 53.5475 21.8122 54.056 21.84 54.3747ZM21.2658 38.7354C21.2636 38.7429 21.2616 38.7503 21.26 38.7578C21.237 38.8606 21.1753 38.9482 21.0864 39.0046C20.9973 39.061 20.8917 39.0794 20.7889 39.0564C20.6862 39.0335 20.5985 38.9719 20.542 38.883C20.4856 38.794 20.4671 38.6884 20.4904 38.5846L21.3999 34.4516C21.3999 34.4512 21.4 34.451 21.4 34.4506L22.1227 31.1665L23.3394 31.8863L21.2658 38.7354ZM23.7113 31.3797L22.1359 30.4478C22.1359 30.4478 22.7294 28.1985 22.7304 28.1943C22.7363 28.1677 22.8044 27.8725 23.0049 27.526L24.0063 30.4598L23.7113 31.3797ZM24.0032 54.3747C24.0312 54.1819 24.0994 53.9346 24.2631 53.7616C24.4018 53.615 24.5923 53.5435 24.8453 53.5428H26.5072L26.5075 54.3746H24.0032V54.3747ZM24.7654 45.6598H26.5046L26.507 52.9176H25.1416L24.7654 45.6598ZM30.7394 53.7616C30.9032 53.9346 30.9714 54.1819 30.9991 54.3746H28.4949L28.4951 53.5428H30.157C30.41 53.5435 30.6004 53.615 30.7394 53.7616ZM28.4952 52.9176L28.4977 45.6598H30.2369L29.8606 52.9176H28.4952ZM30.9323 45.0345H28.2214L27.8127 40.3943C27.8126 40.3928 27.8003 40.1106 27.5017 40.1106C27.2029 40.1106 27.19 40.3931 27.1899 40.3945L26.7841 45.0346H24.0702L24.7622 38.5303H30.2405L30.9323 45.0345ZM30.3707 30.3555C30.369 30.3604 30.354 30.3902 30.354 30.4506L30.2146 37.9049H24.7877C24.7877 37.9049 24.6436 30.4156 24.6436 30.407C24.6436 30.3824 24.6334 30.3604 24.6316 30.3554L23.4672 26.9447C23.7172 26.7157 24.046 26.5179 24.4767 26.4198C24.4879 26.4173 24.4989 26.4141 24.5098 26.4103L25.8405 25.9486C26.0784 26.4375 26.7301 26.7895 27.4967 26.7895C27.498 26.7895 27.4993 26.7895 27.5005 26.7895C27.5009 26.7895 27.5014 26.7895 27.5018 26.7895C27.5032 26.7895 27.5044 26.7895 27.5057 26.7895C28.2723 26.7895 28.9239 26.4375 29.1618 25.9486L30.4925 26.4103C30.5034 26.4141 30.5144 26.4173 30.5257 26.4198C30.9565 26.5179 31.2852 26.7157 31.5351 26.9447L30.3707 30.3555ZM30.996 30.4595L31.9977 27.5257C32.1369 27.7662 32.2122 27.9814 32.2469 28.0995C32.2483 28.1045 32.8665 30.4476 32.8665 30.4476L31.2911 31.3796L30.996 30.4595ZM34.4603 38.8831C34.4039 38.972 34.3162 39.0337 34.2133 39.0567C34.111 39.0796 34.0051 39.0613 33.9161 39.0048C33.8271 38.9484 33.7655 38.8607 33.7426 38.758C33.7409 38.7504 33.739 38.7429 33.7366 38.7355L31.6627 31.8865L32.8795 31.1666L34.5122 38.586C34.5351 38.6886 34.5167 38.7942 34.4603 38.8831ZM39.0056 54.3747H36.6634C37.2991 53.7109 37.548 52.945 37.6406 52.5429H39.0055L39.0056 54.3747ZM39.0056 51.9175H37.642C36.4209 45.2067 36.2386 40.416 36.2116 39.1826H39.0057V51.9175H39.0056ZM41.9731 54.3747H39.631V52.5429H40.9959C41.0886 52.945 41.3374 53.7109 41.9731 54.3747ZM40.9946 51.9175H39.631V39.1826H42.4252C42.3979 40.416 42.2156 45.2068 40.9946 51.9175ZM43.1087 16.6519C43.5928 17.0909 43.6286 17.9507 43.4136 18.5733C43.2459 19.059 42.9492 19.3744 42.6393 19.3965C42.4827 19.4078 42.3588 19.5333 42.3495 19.69L42.2427 21.5022C42.2387 21.5713 42.2576 21.6398 42.2967 21.6969C44.6761 25.1804 44.907 36.5238 44.9292 38.5573H35.1404C35.1364 38.5215 33.9339 33.0486 33.9339 33.0486C34.3378 27.3357 35.1694 23.4107 36.3399 21.6969C36.3789 21.6398 36.3979 21.5713 36.3939 21.5022L36.2873 19.69C36.278 19.5333 36.1541 19.4078 35.9975 19.3965C35.6876 19.3744 35.3907 19.0589 35.2232 18.5733C35.0082 17.9507 35.0439 17.0909 35.5282 16.6519C35.6561 16.536 35.6659 16.3383 35.5499 16.2103C35.4338 16.0825 35.2363 16.0725 35.1084 16.1887C34.5975 16.6518 34.4353 17.3672 34.4826 18.0268L32.9084 17.3116L33.199 15.9991C33.204 15.9769 33.7282 13.7647 35.8347 13.2698L36.0802 13.2109C36.3061 14.3655 37.5503 15.1163 39.3186 15.1163C41.0869 15.1163 42.3312 14.3655 42.557 13.2109L42.8038 13.2701C44.8993 13.7626 45.4173 15.9087 45.438 15.9977L45.729 17.3116L44.1547 18.0269C44.202 17.3674 44.0398 16.6518 43.5289 16.1888C43.401 16.0726 43.2033 16.0826 43.0873 16.2105C42.971 16.3381 42.9807 16.5359 43.1087 16.6519ZM48.3782 30.2662C48.2724 30.4335 48.108 30.5497 47.915 30.5932C47.5163 30.6829 47.1193 30.432 47.0292 30.0336C47.0275 30.0261 47.0256 30.0187 47.0234 30.0113L43.7585 19.2925C43.8536 19.1415 43.9369 18.9722 44.0028 18.7822L45.8668 17.9354L48.4745 29.7076C48.518 29.9006 48.4838 30.099 48.3782 30.2662Z" fill="#1C1B1A"/>
<path d="M16.4086 8.2307C17.0697 8.2307 17.5314 7.96221 17.5314 7.57753C17.5314 7.40483 17.3915 7.26489 17.2188 7.26489C17.0718 7.26489 16.9485 7.36631 16.915 7.50288C16.8542 7.54027 16.6809 7.6053 16.4086 7.6053C16.1364 7.6053 15.9632 7.54027 15.9023 7.50288C15.8688 7.36631 15.7455 7.26489 15.5985 7.26489C15.4258 7.26489 15.2859 7.40483 15.2859 7.57753C15.2859 7.96221 15.7476 8.2307 16.4086 8.2307Z" fill="#1C1B1A"/>
<path d="M15.0617 6.0602C15.1442 6.0602 15.2255 6.02769 15.283 5.96891C15.3419 5.91139 15.3743 5.8301 15.3743 5.74756C15.3743 5.66628 15.3418 5.58499 15.283 5.52621C15.1667 5.40991 14.9567 5.41116 14.8417 5.52621C14.7828 5.58499 14.7491 5.66628 14.7491 5.74756C14.7491 5.8301 14.7829 5.91139 14.8417 5.96891C14.8992 6.02769 14.9804 6.0602 15.0617 6.0602Z" fill="#1C1B1A"/>
<path d="M17.7555 6.06015C17.8367 6.06015 17.9181 6.02764 17.9756 5.96886C18.0344 5.91134 18.0682 5.83005 18.0682 5.74751C18.0682 5.66497 18.0344 5.58494 17.9756 5.52741C17.8593 5.41111 17.6505 5.41111 17.5342 5.52741C17.4754 5.58494 17.4417 5.66497 17.4417 5.74751C17.4417 5.83005 17.4754 5.91134 17.5342 5.96886C17.5916 6.02764 17.6729 6.06015 17.7555 6.06015Z" fill="#1C1B1A"/>
<path d="M26.4523 23.8384C26.4531 24.195 26.8727 24.4341 27.4972 24.4341C27.499 24.4341 27.5007 24.4341 27.5024 24.4341C27.7367 24.4336 27.9617 24.396 28.1358 24.328C28.4969 24.1871 28.5502 23.9579 28.55 23.8339C28.5496 23.6614 28.4097 23.522 28.2373 23.522C28.2371 23.522 28.2368 23.522 28.2366 23.522C28.1004 23.5223 27.9847 23.6096 27.9421 23.7313C27.8783 23.7631 27.7253 23.8084 27.5011 23.8089C27.4999 23.8089 27.4986 23.8089 27.4976 23.8089C27.2753 23.8089 27.1233 23.7645 27.0598 23.7332C27.0167 23.6119 26.901 23.525 26.765 23.525C26.7648 23.525 26.7645 23.525 26.7643 23.525C26.5916 23.5255 26.452 23.6657 26.4523 23.8384Z" fill="#1C1B1A"/>
<path d="M26.278 22.619C26.3605 22.619 26.4407 22.5853 26.4993 22.5265C26.5569 22.469 26.5906 22.3877 26.5906 22.3064C26.5906 22.2238 26.5569 22.1438 26.4993 22.085C26.3818 21.9687 26.1729 21.9687 26.0566 22.085C25.9978 22.1426 25.9653 22.2238 25.9653 22.3064C25.9653 22.3889 25.998 22.469 26.0566 22.5265C26.1141 22.5853 26.1954 22.619 26.278 22.619Z" fill="#1C1B1A"/>
<path d="M28.7241 22.6126C28.8067 22.6126 28.888 22.5801 28.9455 22.5214C29.0044 22.4638 29.0368 22.3825 29.0368 22.3013C29.0368 22.2187 29.0043 22.1374 28.9455 22.0799C28.8292 21.9636 28.6192 21.9636 28.5042 22.0799C28.4453 22.1374 28.4116 22.2187 28.4116 22.3013C28.4116 22.3825 28.4454 22.4638 28.5042 22.5214C28.5617 22.5801 28.6428 22.6126 28.7241 22.6126Z" fill="#1C1B1A"/>
</g>
<defs>
<clipPath id="clip0_23_196">
<rect width="55" height="55" fill="white"/>
</clipPath>
</defs>
</svg>
