<svg width="80" height="80" viewBox="0 0 80 80" fill="none" xmlns="http://www.w3.org/2000/svg">
<path fill-rule="evenodd" clip-rule="evenodd" d="M18.7478 14.747C13.2179 17.2748 9.16663 23.2871 9.16663 30.4567C9.16663 37.7813 12.164 43.427 16.4609 48.2657C20.0024 52.2533 24.2894 55.5583 28.4704 58.7817C29.4634 59.5473 30.4505 60.3083 31.4201 61.0727C33.1736 62.455 34.7376 63.668 36.2453 64.549C37.7536 65.4307 38.968 65.833 40 65.833C41.032 65.833 42.2463 65.4307 43.7546 64.549C45.2623 63.668 46.8263 62.455 48.58 61.0727C49.5496 60.3083 50.5366 59.5473 51.5296 58.7817C55.7106 55.5583 59.9976 52.2533 63.539 48.2657C67.836 43.427 70.8333 37.7813 70.8333 30.4567C70.8333 23.2871 66.782 17.2748 61.252 14.747C56.341 12.5022 49.8873 12.8528 43.575 18.3739L48.434 23.2313C49.4106 24.2075 49.411 25.7904 48.4346 26.7669C47.4586 27.7433 45.8756 27.7436 44.8993 26.7675L38.2326 20.1032L38.1986 20.0688C31.3388 12.9416 24.1202 12.2913 18.7478 14.747ZM40 14.8624C32.2931 7.96717 23.6632 7.0026 16.6692 10.1996C9.28233 13.5761 4.16663 21.4165 4.16663 30.4567C4.16663 39.3417 7.86829 46.12 12.7224 51.5857C16.6095 55.9627 21.3674 59.6263 25.5694 62.8617C26.5219 63.595 27.4459 64.3067 28.3247 64.9993C30.0321 66.3453 31.8651 67.7807 33.7226 68.866C35.5796 69.951 37.6986 70.833 40 70.833C42.3013 70.833 44.4203 69.951 46.2773 68.866C48.135 67.7807 49.9676 66.3453 51.6753 64.9993C52.554 64.3067 53.478 63.595 54.4306 62.8617C58.6326 59.6263 63.3903 55.9627 67.2776 51.5857C72.1316 46.12 75.8333 39.3417 75.8333 30.4567C75.8333 21.4165 70.7176 13.5761 63.3306 10.1996C56.3366 7.0026 47.707 7.96717 40 14.8624Z" fill="white"/>
</svg>
