<svg width="80" height="80" viewBox="0 0 80 80" fill="none" xmlns="http://www.w3.org/2000/svg">
<g clip-path="url(#clip0_11_123)">
<path d="M56.1515 20.0456H41.3345V38.6655H58.7227C58.6134 31.9502 57.6867 25.5949 56.1515 20.0456Z" fill="white"/>
<path d="M24.6526 17.3766H38.6653V0.0846558C32.9377 0.994975 27.83 7.69012 24.6526 17.3766Z" fill="white"/>
<path d="M23.8485 20.0456C22.3133 25.5949 21.3864 31.9502 21.2773 38.6655H38.6655V20.0456H23.8485Z" fill="white"/>
<path d="M41.3345 0.0846558V17.3766H55.3472C52.1699 7.69012 47.0623 0.994975 41.3345 0.0846558Z" fill="white"/>
<path d="M18.6082 41.3345H0C0.223145 48.0977 2.12988 54.4385 5.31673 59.9557H20.9976C19.5548 54.3958 18.7077 48.0861 18.6082 41.3345Z" fill="white"/>
<path d="M48.8054 0.953918C52.7442 4.41323 56.0242 10.1463 58.2491 17.3766H73.0055C67.3795 9.19431 58.7939 3.20555 48.8054 0.953918Z" fill="white"/>
<path d="M5.31592 20.0458C2.12956 25.5627 0.223145 31.9029 0 38.6657H18.6082C18.7077 31.9146 19.5547 25.6053 20.9972 20.0458H5.31592Z" fill="white"/>
<path d="M61.3918 41.3345C61.2923 48.0861 60.4451 54.3958 59.0024 59.9557H74.6833C77.8703 54.4385 79.7769 48.0977 80 41.3345H61.3918Z" fill="white"/>
<path d="M21.2773 41.3345C21.3864 48.0503 22.3135 54.4061 23.8488 59.9557H38.6654V41.3345H21.2773Z" fill="white"/>
<path d="M21.7512 62.6247H6.99536C12.6217 70.8065 21.2068 76.7948 31.1946 79.0462C27.2561 75.5871 23.9762 69.8545 21.7512 62.6247Z" fill="white"/>
<path d="M58.2486 62.6247C56.0237 69.8545 52.7439 75.5873 48.8054 79.0462C58.7934 76.7949 67.3785 70.8065 73.0046 62.6247H58.2486Z" fill="white"/>
<path d="M6.99463 17.3766H21.751C23.9759 10.1463 27.2557 4.41323 31.1947 0.953918C21.2062 3.20555 12.6208 9.19431 6.99463 17.3766Z" fill="white"/>
<path d="M41.3345 62.6247V79.9154C47.0622 79.0051 52.1696 72.3106 55.3468 62.6247H41.3345Z" fill="white"/>
<path d="M24.6531 62.6247C27.8305 72.3106 32.9379 79.0052 38.6654 79.9154V62.6247H24.6531Z" fill="white"/>
<path d="M41.3345 41.3345V59.9557H56.1512C57.6865 54.4061 58.6134 48.0503 58.7227 41.3345H41.3345Z" fill="white"/>
<path d="M74.684 20.0456H59.0027C60.4452 25.6052 61.2922 31.9144 61.3917 38.6655H80.0001C79.7769 31.9029 77.8705 25.5625 74.684 20.0456Z" fill="white"/>
</g>
<defs>
<clipPath id="clip0_11_123">
<rect width="80" height="80" fill="white"/>
</clipPath>
</defs>
</svg>
