<svg width="80" height="80" viewBox="0 0 80 80" fill="none" xmlns="http://www.w3.org/2000/svg">
<g clip-path="url(#clip0_15_213)">
<path d="M41.3206 9.81139C41.3206 8.89045 40.7924 8.09451 40.0236 7.70483C40.7924 7.31514 41.3206 6.51921 41.3206 5.59827C41.3206 4.05499 39.8538 2.90312 38.3302 3.32281C38.4447 1.48828 36.9911 0 35.2146 0C33.9036 0 32.783 0.807811 32.3186 1.95218C31.8546 0.807811 30.7338 0 29.423 0C27.6461 0 26.1929 1.48859 26.3072 3.32234C24.7852 2.90328 23.3168 4.05343 23.3168 5.5978C23.3168 6.51889 23.8449 7.31467 24.6138 7.70436C23.8449 8.09405 23.3168 8.88998 23.3168 9.81092C23.3168 10.7319 23.8449 11.5278 24.6138 11.9175C23.8449 12.3073 23.3168 13.1034 23.3168 14.0242C23.3168 15.329 24.3746 16.3867 25.6793 16.3867C27.0094 16.3867 28.1083 15.2801 28.0355 13.8986C29.1496 14.9433 30.6468 15.5843 32.2947 15.5843C33.9675 15.5843 35.4852 14.9237 36.6044 13.8506C36.5022 15.2537 37.6136 16.3868 38.9581 16.3868C40.263 16.3868 41.3206 15.329 41.3206 14.0243C41.3206 13.1033 40.7924 12.3075 40.0236 11.9178C40.7925 11.5283 41.3206 10.7322 41.3206 9.81139Z" fill="#FFB87F"/>
<path d="M44.8033 36.1853H19.7355C19.269 36.1853 18.8893 36.565 18.8893 37.0316V50.3645C18.8893 50.8311 19.269 51.2107 19.7355 51.2107H26.0486C26.0486 51.4212 26.0486 75.1073 26.0486 75.5494H22.2212C21.6046 75.5494 21.1065 76.0494 21.1065 76.6641V78.8854C21.1065 79.5146 21.623 80.0001 22.2212 80.0001H42.3178C42.9333 80.0001 43.4325 79.5008 43.4325 78.8854V76.6641C43.4325 76.0479 42.9328 75.5494 42.3178 75.5494H38.4903V51.2107H44.8035C45.27 51.2107 45.6497 50.8311 45.6497 50.3645V37.0316C45.6495 36.5648 45.2699 36.1853 44.8033 36.1853ZM41.482 41.6845H23.0568C22.3752 41.6845 21.8229 41.1322 21.8229 40.4506C21.8229 39.769 22.3752 39.2167 23.0568 39.2167H41.4817C42.1633 39.2167 42.7156 39.769 42.7156 40.4506C42.7156 41.1322 42.1633 41.6845 41.482 41.6845Z" fill="#FFB87F"/>
<path d="M62.109 12.7467C61.4662 12.5211 60.762 12.8592 60.5362 13.5024L56.6556 12.1403C56.8812 11.4975 56.5431 10.7931 55.9 10.5675C55.2571 10.3419 54.5528 10.68 54.3271 11.3231L52.5835 16.2903C52.3579 16.9331 52.696 17.6375 53.3392 17.8631C53.9812 18.0886 54.686 17.7514 54.912 17.1075L55.589 17.3452L53.4476 23.4456C53.2071 23.5462 53.6387 23.3156 47.4611 26.759L47.4504 24.6475C47.4307 20.7451 44.2401 17.5703 40.3375 17.5703H39.503L33.6109 21.9894L32.3098 17.5703H32.2883L30.9872 21.9894L29.2569 20.6917L25.0949 17.5703H24.2014C20.2991 17.5703 17.0849 20.7451 17.0652 24.6475V33.8965C17.7894 33.2733 18.7072 32.8954 19.7355 32.8954H23.0791V24.6776C23.0808 24.3517 23.3458 24.0889 23.6713 24.09C23.9969 24.0909 24.2603 24.3551 24.2603 24.6808V32.8954H40.1812V24.6928C40.1812 24.3726 40.4386 24.112 40.7586 24.1078C41.0787 24.1036 41.3428 24.3575 41.3509 24.6776V31.8764C41.3526 32.2297 41.2328 32.5736 41.3509 32.8954H44.8036C45.7389 32.8954 46.6023 33.2079 47.2961 33.7334L56.0675 28.844C57.5174 28.0358 58.0376 26.2051 57.2295 24.7553C56.9378 24.2317 56.5117 23.8319 56.0195 23.5694L57.9174 18.1623L58.7929 18.4695C58.5673 19.1123 58.9054 19.8167 59.5485 20.0423C60.1906 20.2678 60.8954 19.9306 61.1213 19.2867L62.8649 14.3195C63.0904 13.6767 62.752 12.9725 62.109 12.7467Z" fill="#FFB87F"/>
</g>
<defs>
<clipPath id="clip0_15_213">
<rect width="80" height="80" fill="white"/>
</clipPath>
</defs>
</svg>
