<svg width="55" height="55" viewBox="0 0 55 55" fill="none" xmlns="http://www.w3.org/2000/svg">
<g clip-path="url(#clip0_22_104)">
<path d="M25.6035 50.2585V54.0516C25.6035 54.5753 26.0282 54.9999 26.5518 54.9999H28.4484C28.9721 54.9999 29.3967 54.5753 29.3967 54.0516V50.2585H25.6035Z" fill="#959CB3"/>
<path d="M33.1897 41.7241H21.8104V48.1382C21.8104 48.8565 22.2163 49.5133 22.8589 49.8345L25.6035 51.2069H29.3966L32.1412 49.8345C32.7838 49.5133 33.1896 48.8566 33.1896 48.1382V41.7241H33.1897Z" fill="#C7CFE2"/>
<path d="M33.1897 47.4137V45.5172H26.5518V41.7241H21.8104V48.1382C21.8104 48.8566 22.2163 49.5133 22.8589 49.8345L25.6035 51.2069H29.0804L27.2506 49.8345C26.8222 49.5133 26.5517 48.8566 26.5517 48.1382V47.4138H33.1897V47.4137Z" fill="#AFB9D2"/>
<path d="M46.4656 18.9655C46.4656 8.14902 37.4108 -0.55247 26.4676 0.0273932C16.3928 0.56128 8.36798 9.20176 8.53717 19.2892C8.65813 26.5019 12.8136 32.7189 18.8389 35.8178C20.1065 36.4696 20.8622 37.8185 20.8622 39.2438V41.7242C20.8622 42.2478 21.2869 42.6725 21.8105 42.6725H33.1898C33.7135 42.6725 34.1382 42.2478 34.1382 41.7242V39.1668C34.1382 37.7581 34.9159 36.459 36.1683 35.8141C42.2796 32.6679 46.4656 26.3128 46.4656 18.9655Z" fill="#FFDC64"/>
<path d="M27.5 34.138C35.8795 34.138 42.6724 27.3451 42.6724 18.9656C42.6724 10.5861 35.8795 3.79321 27.5 3.79321C19.1205 3.79321 12.3276 10.5861 12.3276 18.9656C12.3276 27.3451 19.1205 34.138 27.5 34.138Z" fill="#FFF082"/>
<path d="M30.3448 18.4572V11.9305C31.5227 12.4385 32.2413 13.2209 32.2413 13.9574C32.2413 14.4811 32.6654 14.9057 33.1897 14.9057C33.7139 14.9057 34.138 14.4811 34.138 13.9574C34.138 12.1397 32.6035 10.6115 30.3449 9.90499V8.5345C30.3449 8.01082 29.9208 7.58618 29.3966 7.58618C28.8725 7.58618 28.4483 8.01082 28.4483 8.5345V9.53148C28.1383 9.50269 27.8236 9.48271 27.5 9.48271C27.1764 9.48271 26.8616 9.50259 26.5516 9.53148V8.5345C26.5516 8.01082 26.1275 7.58618 25.6033 7.58618C25.0792 7.58618 24.655 8.01082 24.655 8.5345V9.9051C22.3964 10.6116 20.8619 12.1397 20.8619 13.9575C20.8619 16.3642 22.476 17.6303 24.655 18.5257V25.0523C23.4771 24.5443 22.7585 23.762 22.7585 23.0255C22.7585 22.5018 22.3344 22.0772 21.8101 22.0772C21.286 22.0772 20.8618 22.5018 20.8618 23.0255C20.8618 24.8432 22.3963 26.3714 24.6549 27.0779V28.4484C24.6549 28.9721 25.079 29.3967 25.6032 29.3967C26.1273 29.3967 26.5515 28.9721 26.5515 28.4484V27.4514C26.8615 27.4802 27.1762 27.5002 27.4998 27.5002C27.8234 27.5002 28.1381 27.4803 28.4482 27.4514V28.4484C28.4482 28.9721 28.8723 29.3967 29.3965 29.3967C29.9206 29.3967 30.3448 28.9721 30.3448 28.4484V27.0778C32.6033 26.3713 34.1379 24.8432 34.1379 23.0254C34.1379 20.6187 32.5239 19.3525 30.3448 18.4572ZM27.5 11.3794C27.8292 11.3794 28.1443 11.4014 28.4483 11.4366V17.7878C28.2237 17.7181 27.9971 17.6495 27.7686 17.582C27.3278 17.4518 26.9251 17.3252 26.5517 17.1998V11.4365C26.8556 11.4013 27.1707 11.3794 27.5 11.3794ZM22.7586 13.9575C22.7586 13.221 23.4772 12.4388 24.6551 11.9306V16.4394C23.2725 15.7457 22.7586 15.007 22.7586 13.9575ZM27.5 25.6035C27.1707 25.6035 26.8556 25.5815 26.5516 25.5463V19.195C26.7762 19.2648 27.0028 19.3334 27.2313 19.4009C27.6721 19.5311 28.0748 19.6577 28.4482 19.7831V25.5464C28.1444 25.5815 27.8291 25.6035 27.5 25.6035ZM30.3448 25.0522V20.5435C31.7275 21.2371 32.2413 21.9759 32.2413 23.0254C32.2413 23.7619 31.5226 24.5441 30.3448 25.0522Z" fill="#FFC850"/>
</g>
<defs>
<clipPath id="clip0_22_104">
<rect width="55" height="55" fill="white"/>
</clipPath>
</defs>
</svg>
