<svg width="260" height="150" viewBox="0 0 260 150" fill="none" xmlns="http://www.w3.org/2000/svg">
<g clip-path="url(#clip0_23_497)">
<mask id="mask0_23_497" style="mask-type:luminance" maskUnits="userSpaceOnUse" x="0" y="0" width="260" height="150">
<path d="M0 3.01716e-07H260V150H0V3.01716e-07Z" fill="white"/>
</mask>
<g mask="url(#mask0_23_497)">
<path d="M71.6077 70.6039V77.057H73.7364C74.1384 77.057 76.3292 77.0438 77.0857 76.4106C77.7487 75.8285 77.7182 74.6899 77.7182 74.2119V73.9279H78.7515V77.6391C78.7515 77.7167 78.7357 77.7423 78.6894 77.8455C78.6284 77.872 78.5516 77.8332 78.4737 77.8332H67.8121V77.0315C68.1047 77.0438 69.4168 77.0958 69.7252 76.8374C69.9714 76.6302 69.9251 76.0225 69.9251 75.7377V70.6815C69.9104 69.4529 70.0955 69.2589 67.8121 69.2589V68.444H73.7364V69.2845C71.5771 69.2977 71.6077 69.1681 71.6077 70.6039Z" fill="white"/>
<path d="M81.973 69.789C81.973 69.3101 81.6647 69.2457 81.31 69.2325H79.8748V68.444H82.0814H91.3708V72.3369L90.5374 72.3493L90.5058 71.9744C90.4753 71.5731 90.3827 70.267 89.6261 69.6726C89.0705 69.2713 88.8085 69.2845 88.0677 69.2845H83.9018C83.7787 69.2845 83.7018 69.2969 83.6861 69.453C83.6861 69.453 83.6703 72.4657 83.6861 72.4533L83.8092 72.5301H85.0898C85.5528 72.5301 86.5872 72.6729 86.9418 72.142C87.1417 71.8192 87.1259 70.8235 87.1259 70.7847H87.9593C88.0677 70.8491 88.0519 70.9523 88.0519 71.0563V75.0524C88.0519 75.0648 88.0677 75.3108 87.9593 75.3752C87.6973 75.3884 87.4205 75.3884 87.1585 75.3752C87.1259 75.0912 87.0807 74.0311 86.6945 73.733C86.3862 73.4614 85.1203 73.5267 85.013 73.5267H83.8092C83.6555 73.5267 83.7018 73.7586 83.7018 73.8627V76.7978C83.7166 76.9539 83.7787 76.9662 83.9018 76.9662H86.5251C87.2659 76.9662 88.9779 77.005 89.7345 76.385C90.4132 75.8153 90.5374 74.742 90.5058 74.3416V73.9271H91.3855V77.7944C91.3855 77.9099 91.1235 77.8332 91.0298 77.8332H82.0193H79.8748V77.0183H81.31C81.6647 77.005 81.973 76.9407 81.973 76.4618V75.6733V70.5774V69.789Z" fill="white"/>
<path d="M96.7983 77.1733C96.8141 77.1865 97.6159 77.1733 97.6159 77.1733V77.833H92.4788V77.1733C93.7278 77.1733 93.8825 77.1477 95.1168 76.0224L98.2957 73.1128C98.2652 73.0352 98.2031 72.9832 98.1568 72.9056L95.3788 70.3453C93.9751 69.0259 93.9909 69.2332 92.8639 69.22V68.4438H98.8039V69.2843H97.4781C96.5205 69.2976 96.9846 69.6592 97.3855 70.086L99.4984 72.0263L101.861 69.9961C102.184 69.7888 102.431 69.272 101.721 69.2843H100.672V68.4438H105.671V69.272C104.005 69.3628 104.451 68.9615 102.662 70.5517L100.533 72.4143C100.471 72.4787 100.178 72.686 100.255 72.7636L103.68 76.0356C104.637 76.9793 104.931 77.1865 106.041 77.1733V77.833H99.9625V77.1733H100.996C102.415 77.1345 101.984 76.5524 101.705 76.2808L99.1291 73.8625L96.2122 76.3461C95.7955 76.6821 95.4872 77.1733 96.7983 77.1733Z" fill="white"/>
<path d="M114.771 69.5692L115.218 68.4438H116.128L116.113 72.0007L116.052 72.0651H115.218C114.694 70.8885 114.4 69.7764 112.426 69.2975C111.67 69.1035 109.772 69.0259 109 69.6856C108.584 70.0472 108.49 70.6037 108.6 70.9653C108.876 71.9874 109.462 72.013 111.067 72.2591C112.148 72.3243 112.456 72.4011 113.243 72.5307C114.694 72.8667 115.804 73.1128 116.391 74.1473C116.839 74.9234 116.777 75.7119 116.175 76.5145C115.372 77.5613 113.738 78.0014 112.889 78.027C111.222 78.0923 109.572 77.1733 108.336 76.2419L107.92 77.833H106.994L107.01 74.1341H107.982C109.061 75.6607 109.277 75.816 110.929 76.5656C112.117 76.8505 113.629 76.9281 114.694 76.0356C115.049 75.6343 115.064 75.5179 115.017 75.1563C114.632 74.1341 113.366 73.9145 112.287 73.746L110.883 73.5141C109.818 73.3324 108.105 73.3068 107.364 72.0518C106.963 71.3666 106.917 70.6301 107.364 69.8408C107.873 68.9483 108.707 68.5867 109.649 68.405C110.96 68.1598 113.058 68.263 114.771 69.5692Z" fill="white"/>
<path d="M121.681 73.9145H125.754L123.856 69.9828L121.681 73.9145ZM123.363 68.4438H124.797L128.933 76.1908C129.334 76.966 129.442 77.018 130.322 77.0957V77.8462H125.784V77.0824H126.972C127.235 77.0824 127.282 77.0048 127.159 76.772L126.341 75.1166C126.11 74.7682 126.156 74.8194 125.754 74.8194H121.203C121.203 74.8194 120.122 76.7076 120.184 76.9016C120.231 77.0436 120.446 77.0569 120.785 77.0701H121.634V77.833H117.715V77.0701C118.394 77.0701 118.548 77.1988 119.351 75.7375C119.459 75.5434 123.239 68.5082 123.363 68.4438Z" fill="white"/>
<path d="M131.382 68.4438H134.793L141.798 75.8803V70.6557C141.767 69.7888 141.999 69.3628 140.27 69.3363V68.4438H144.066C144.127 68.4438 144.097 69.3363 144.097 69.3363C142.971 69.3628 142.802 69.3751 142.802 70.2809V77.833H141.181C141.226 77.885 134.145 70.4096 134.145 70.4096V75.7763C134.207 77.1733 133.806 77.0701 135.842 77.0701V77.8462H131.398V77.0701C133.111 77.0824 133.033 77.16 133.019 75.9059V70.7589C133.019 70.7589 133.08 69.7111 132.894 69.5436C132.663 69.3231 131.598 69.3487 131.382 69.3487V68.4438Z" fill="white"/>
<path d="M149.263 69.2843V77.0313H151.022C152.596 77.0313 154.03 77.0437 155.049 75.5699C155.898 74.367 155.975 72.1815 155.018 70.7845C153.877 69.1168 152.796 69.2323 151.068 69.2323H149.293L149.263 69.2843ZM145.22 68.4438H151.64C153.476 68.4438 155.697 68.7799 156.869 70.5905C157.811 72.0263 157.765 74.3017 156.855 75.622C155.481 77.5737 152.981 77.833 151.068 77.833H145.266V77.0313H147.164C147.487 77.0313 147.503 76.8893 147.503 76.7332V75.764V70.4353V69.6204C147.487 69.4396 147.613 69.2067 147.072 69.2323H145.22V68.4438Z" fill="white"/>
<path d="M162.376 72.6469L162.453 72.7633H164.659C165.2 72.7633 166.804 72.8409 167.437 71.9484C167.776 71.4836 167.76 70.681 167.468 70.2418C166.788 69.2717 165.569 69.3757 164.767 69.3493H163.008C162.884 69.3493 162.746 69.3625 162.668 69.3625C162.576 69.3625 162.438 69.3757 162.376 69.4657V72.6469ZM158.688 68.4823H165.107C166.048 68.4823 168.209 68.5211 169.104 69.7373C169.582 70.3838 169.596 71.1599 169.211 71.8196C168.686 72.7377 168.07 72.8409 166.99 73.1778C168.67 73.9142 168.841 74.0051 168.932 75.5052V75.828C168.932 76.0097 168.965 76.9666 169.366 77.1474C169.443 77.1995 169.596 77.225 169.782 77.1218C170.153 76.9022 170.137 75.8157 170.137 75.5696V75.208C170.43 75.1948 170.708 75.1948 170.986 75.208C171.063 75.7769 171.217 77.2127 170.291 77.7551C169.72 78.0788 168.856 78.092 168.301 77.8715C167.437 77.5223 167.345 76.6174 167.283 76.0229V75.6737C167.036 73.527 166.018 73.6426 164.027 73.5782H163.749C163.533 73.5782 163.302 73.5914 163.086 73.5914H162.684L162.607 73.617H162.529H162.453L162.376 73.669V75.6084C162.376 75.8801 162.314 76.7849 162.668 76.9799C162.977 77.1474 164.212 77.1086 164.49 77.1086V77.8459H158.627V77.1218C158.627 77.1218 160.185 77.1218 160.431 76.9146C160.663 76.7206 160.601 76.0873 160.601 75.8413V70.6687C160.601 70.4614 160.693 69.7109 160.216 69.4657C159.922 69.2972 159.12 69.2972 158.688 69.2972C158.611 69.2073 158.627 69.0265 158.627 68.9357V68.5476L158.688 68.4823Z" fill="white"/>
<path d="M180.826 69.9184C180.193 69.4404 179.546 69.2455 178.759 69.1423C177.772 69.0135 176.305 69.2199 175.318 70.0472C173.96 71.2113 173.79 73.0475 174.068 74.1217C174.422 75.4667 175.519 76.5145 176.999 76.9537C177.972 77.213 178.62 77.1988 179.485 77.018C183.048 75.9968 183.063 71.5994 180.826 69.9184ZM177.293 68.315C179.051 68.2242 180.903 68.3794 182.632 69.9828C183.897 71.1725 184.328 72.738 183.82 74.561C183.14 76.8893 180.873 77.7298 179.592 77.9106C178.048 78.1311 175.673 78.0402 174.053 76.8505C172.231 75.5046 171.907 73.8625 172.155 72.4787C172.401 71.0305 173.62 69.5692 175.286 68.8063C175.982 68.4958 176.66 68.3538 177.293 68.315Z" fill="white"/>
<path d="M120.63 87.2687H123.365L122.091 84.6308L120.63 87.2687ZM121.759 83.598H122.722L125.498 88.7962C125.768 89.3175 125.84 89.3518 126.431 89.4048V89.9075H123.385V89.3951H124.183C124.359 89.3951 124.39 89.3439 124.307 89.1878L123.759 88.0766C123.603 87.8411 123.634 87.8764 123.365 87.8764H120.309C120.309 87.8764 119.584 89.1437 119.627 89.2734C119.657 89.3695 119.802 89.3783 120.031 89.3862H120.6V89.8987H117.969V89.3862C118.425 89.3862 118.528 89.4736 119.068 88.4928C119.139 88.3623 121.676 83.6413 121.759 83.598Z" fill="white"/>
<path d="M129.897 84.161V89.3609H131.078C132.134 89.3609 133.097 89.3689 133.78 88.3793C134.35 87.5724 134.402 86.1057 133.76 85.1682C132.994 84.0481 132.269 84.1266 131.108 84.1266H129.918L129.897 84.161ZM127.185 83.5974H131.493C132.725 83.5974 134.216 83.8232 135.004 85.0377C135.634 86.0016 135.604 87.5291 134.993 88.4146C134.072 89.7252 132.393 89.8989 131.108 89.8989H127.215V89.3609H128.489C128.706 89.3609 128.717 89.2648 128.717 89.1607V88.5099V84.9336V84.3868C128.706 84.2651 128.789 84.109 128.427 84.1266H127.185V83.5974Z" fill="white"/>
<path d="M136.203 83.598H139.372V84.1792C139.3 84.1881 138.782 84.1881 138.782 84.1881C138.057 84.1881 138.285 84.4306 138.658 85.1168L140.688 88.9179L142.728 85.1168C143.246 84.1272 142.893 84.1881 142.49 84.1881H141.847V83.598H144.717V84.1881C144.26 84.1969 144.095 84.0487 143.629 84.9421L140.957 89.9075H140.004L137.135 84.7605C136.908 84.3874 136.918 84.2657 136.586 84.1881H136.203V83.598Z" fill="white"/>
<path d="M150.628 84.5865C150.203 84.2655 149.769 84.135 149.24 84.0653C148.577 83.9797 147.594 84.1182 146.931 84.6738C146.019 85.4543 145.906 86.6873 146.091 87.4079C146.33 88.311 147.065 89.0139 148.06 89.3084C148.712 89.4822 149.147 89.4734 149.728 89.3517C152.119 88.6664 152.13 85.7145 150.628 84.5865ZM148.256 83.5105C149.437 83.4497 150.68 83.5538 151.839 84.6306C152.689 85.4288 152.978 86.4792 152.637 87.7024C152.181 89.2652 150.659 89.8288 149.799 89.9505C148.764 90.0987 147.168 90.0378 146.081 89.2388C144.86 88.3365 144.642 87.2341 144.808 86.3054C144.973 85.3335 145.791 84.3519 146.91 83.8404C147.376 83.6323 147.831 83.537 148.256 83.5105Z" fill="white"/>
<path d="M159.543 84.3177L159.75 83.5981H160.454V86.0622H159.73C159.43 85.3073 159.243 84.5435 158.124 84.1881C157.534 83.9967 156.55 84.0055 155.887 84.4051C154.78 85.0727 154.645 86.2104 154.676 86.8701C154.717 87.6427 154.945 88.5705 156.022 89.1173C156.86 89.5433 157.669 89.5521 158.456 89.239C159.046 89.0044 159.295 88.5969 159.367 88.1454C159.377 88.1022 159.419 87.4857 159.232 87.364C159.108 87.2855 158.932 87.2511 158.6 87.2599H158.217H157.906V86.7131H161.708V87.2423L161.552 87.2511C161.439 87.2599 160.723 87.2599 160.589 87.364C160.496 87.4337 160.517 88.1366 160.517 88.1366V89.8987H159.936C159.936 89.8987 159.522 89.2566 159.502 89.2478C158.394 90.0548 157.089 90.1589 155.981 89.8899C154.8 89.5944 153.96 88.9003 153.577 87.8244C153.236 86.8436 153.391 85.5066 154.396 84.5523C155.4 83.5796 156.685 83.3979 157.855 83.5363C158.518 83.6237 158.86 83.7798 159.543 84.3177Z" fill="white"/>
<path d="M164.834 87.2687H167.569L166.294 84.6308L164.834 87.2687ZM165.963 83.598H166.926L169.702 88.7962C169.971 89.3175 170.044 89.3518 170.634 89.4048V89.9075H167.589V89.3951H168.386C168.562 89.3951 168.594 89.3439 168.51 89.1878L167.962 88.0766C167.806 87.8411 167.837 87.8764 167.569 87.8764H164.513C164.513 87.8764 163.788 89.1437 163.83 89.2734C163.86 89.3695 164.006 89.3783 164.234 89.3862H164.803V89.8987H162.173V89.3862C162.628 89.3862 162.731 89.4736 163.271 88.4928C163.343 88.3623 165.88 83.6413 165.963 83.598Z" fill="white"/>
<path d="M174.101 84.161V89.3609H175.281C176.338 89.3609 177.301 89.3689 177.984 88.3793C178.554 87.5724 178.605 86.1057 177.964 85.1682C177.197 84.0481 176.472 84.1266 175.312 84.1266H174.122L174.101 84.161ZM171.388 83.5974H175.696C176.928 83.5974 178.419 83.8232 179.207 85.0377C179.838 86.0016 179.807 87.5291 179.197 88.4146C178.275 89.7252 176.597 89.8989 175.312 89.8989H171.418V89.3609H172.693C172.91 89.3609 172.92 89.2648 172.92 89.1607V88.5099V84.9336V84.3868C172.91 84.2651 172.993 84.109 172.631 84.1266H171.388V83.5974Z" fill="white"/>
<path d="M186.258 84.5865C185.833 84.2655 185.398 84.135 184.87 84.0653C184.207 83.9797 183.223 84.1182 182.561 84.6738C181.649 85.4543 181.536 86.6873 181.721 87.4079C181.96 88.311 182.695 89.0139 183.69 89.3084C184.342 89.4822 184.777 89.4734 185.357 89.3517C187.749 88.6664 187.76 85.7145 186.258 84.5865ZM183.886 83.5105C185.067 83.4497 186.31 83.5538 187.469 84.6306C188.319 85.4288 188.608 86.4792 188.267 87.7024C187.811 89.2652 186.289 89.8288 185.429 89.9505C184.394 90.0987 182.798 90.0378 181.711 89.2388C180.49 88.3365 180.272 87.2341 180.438 86.3054C180.603 85.3335 181.421 84.3519 182.539 83.8404C183.006 83.6323 183.461 83.537 183.886 83.5105Z" fill="white"/>
<path d="M216.637 69.9178C216.004 69.4398 215.357 69.2449 214.57 69.1417C213.583 69.0129 212.116 69.2193 211.129 70.0466C209.771 71.2107 209.601 73.0469 209.879 74.1212C210.233 75.4661 211.33 76.5139 212.81 76.9531C213.782 77.2115 214.431 77.1983 215.296 77.0175C218.859 75.9962 218.874 71.5988 216.637 69.9178ZM213.104 68.3144C214.862 68.2236 216.714 68.3788 218.443 69.9822C219.708 71.1719 220.139 72.7374 219.631 74.5604C218.951 76.8887 216.684 77.7292 215.403 77.91C213.859 78.1305 211.484 78.0387 209.864 76.8499C208.042 75.504 207.718 73.8619 207.966 72.4781C208.212 71.0299 209.431 69.5686 211.097 68.8057C211.793 68.4952 212.471 68.3532 213.104 68.3144Z" fill="white"/>
<path d="M225.074 68.4433L228.869 75.9575L232.497 68.4433H236.693V69.297C236.693 69.297 235.104 69.297 234.887 69.4655C234.641 69.6463 234.702 70.4347 234.702 70.5379V75.8022C234.702 76.0218 234.672 76.7071 234.873 76.8888C235.15 77.134 236.677 77.0564 236.677 77.0564V77.8457H231.339V77.0819C231.339 77.0819 232.635 77.0564 232.759 76.9788C233.098 76.7847 232.974 76.0606 232.974 75.841V70.1375L232.897 70.1763L232.866 70.2284L232.82 70.3183L229.241 77.8325H227.929L224.226 70.4868C224.178 70.3704 224.164 70.3183 224.055 70.2804C224.041 70.3704 224.041 70.4612 224.041 70.5512V75.8022C224.041 75.9187 224.009 76.7591 224.195 76.9532C224.35 77.1207 225.599 77.0696 225.754 77.0819V77.8325H220.846V77.0819C221.124 77.0819 222.266 77.0952 222.405 77.0176C222.744 76.8368 222.698 76.0218 222.698 75.789V70.5379C222.698 70.4868 222.76 69.6463 222.544 69.4655C222.329 69.2582 221.001 69.245 220.8 69.245V68.4433H225.074Z" fill="white"/>
<path d="M239.914 69.7887C239.914 69.3098 239.605 69.2455 239.251 69.2322H237.815V68.4438H240.022H249.311V72.3367L248.478 72.349L248.446 71.9742C248.416 71.5729 248.323 70.2667 247.567 69.6723C247.011 69.271 246.749 69.2843 246.008 69.2843H241.842C241.719 69.2843 241.642 69.2966 241.627 69.4527C241.627 69.4527 241.611 72.4654 241.627 72.4531L241.75 72.5298H243.03C243.493 72.5298 244.528 72.6727 244.882 72.1418C245.082 71.819 245.066 70.8233 245.066 70.7844H245.9C246.008 70.8488 245.992 70.952 245.992 71.0561V75.0522C245.992 75.0645 246.008 75.3106 245.9 75.375C245.638 75.3882 245.361 75.3882 245.099 75.375C245.066 75.091 245.021 74.0309 244.635 73.7328C244.327 73.4611 243.061 73.5264 242.954 73.5264H241.75C241.596 73.5264 241.642 73.7584 241.642 73.8624V76.7984C241.657 76.9536 241.719 76.966 241.842 76.966H244.466C245.206 76.966 246.918 77.0048 247.675 76.3839C248.354 75.8151 248.478 74.7417 248.446 74.3413V73.9268H249.326V77.7941C249.326 77.9097 249.064 77.8329 248.97 77.8329H239.96H237.815V77.018H239.251C239.605 77.0048 239.914 76.9404 239.914 76.4615V75.6731V70.5772V69.7887Z" fill="white"/>
<path d="M258.088 69.5687L258.535 68.4433H259.445L259.429 72.0002L259.368 72.0646H258.535C258.011 70.8881 257.716 69.7759 255.742 69.297C254.987 69.103 253.088 69.0254 252.317 69.6851C251.9 70.0467 251.807 70.6032 251.916 70.9648C252.193 71.987 252.779 72.0125 254.384 72.2586C255.464 72.3239 255.774 72.4006 256.56 72.5302C258.011 72.8663 259.121 73.1123 259.707 74.1468C260.155 74.9229 260.093 75.7114 259.491 76.514C258.689 77.5608 257.054 78.0009 256.205 78.0265C254.538 78.0918 252.888 77.1728 251.653 76.2414L251.236 77.8325H250.31L250.326 74.1336H251.299C252.378 75.6602 252.594 75.8155 254.246 76.5651C255.434 76.85 256.946 76.9276 258.011 76.0351C258.366 75.6338 258.38 75.5174 258.334 75.1558C257.949 74.1336 256.683 73.914 255.603 73.7456L254.2 73.5136C253.135 73.3319 251.422 73.3063 250.681 72.0513C250.28 71.3661 250.234 70.6296 250.681 69.8403C251.19 68.9478 252.024 68.5862 252.965 68.4045C254.276 68.1593 256.375 68.2625 258.088 69.5687Z" fill="white"/>
<path d="M43.8212 100.318H42.7384V49.9409H43.8212V100.318Z" fill="white"/>
<path d="M19.0427 58.0763H16.3236L0.838501 92.7517H3.2545L8.42639 81.7786L8.42744 81.7768L8.87675 80.7643H8.88096L9.76802 78.7826H9.76381L16.0879 64.7139C16.7372 63.2278 17.6242 60.5528 17.6242 60.5528H17.7421C17.7421 60.5528 18.6291 63.2278 19.2794 64.7139L24.8722 77.2736L26.5759 81.0862L31.8088 92.7517H34.5278L19.0427 58.0763Z" fill="white"/>
<path d="M35.314 76.1972H32.9243H20.5655V78.358H32.917C32.2593 84.924 25.6837 90.101 17.6833 90.101C9.24731 90.101 2.38443 84.3481 2.38443 77.2776C2.38443 70.207 9.24731 64.455 17.6833 64.455C24.3768 64.455 30.0758 68.078 32.1467 73.106H34.6479C32.4918 66.9588 25.7047 62.4565 17.6833 62.4565C7.93303 62.4565 0 69.1055 0 77.2776C0 85.4497 7.93303 92.0986 17.6833 92.0986C27.4336 92.0986 35.3656 85.4497 35.3656 77.2776C35.3656 76.9142 35.3445 76.5544 35.314 76.1972Z" fill="white"/>
<path d="M53.3563 71.8311H59.5962L56.6888 65.8092L53.3563 71.8311ZM55.9322 63.4518H58.1304L64.465 75.3174C65.0796 76.5063 65.2448 76.5857 66.5917 76.7039V77.853H59.6436V76.6845H61.4629C61.8649 76.6845 61.9354 76.5654 61.747 76.2091L60.4938 73.6735C60.1392 73.1382 60.2107 73.2175 59.5962 73.2175H52.6239C52.6239 73.2175 50.9687 76.1103 51.0634 76.4066C51.1349 76.6254 51.4653 76.6448 51.9852 76.6642H53.2858V77.8336H47.2826V76.6642C48.3222 76.6642 48.5579 76.8626 49.787 74.6242C49.9532 74.327 55.7439 63.5506 55.9322 63.4518Z" fill="white"/>
<path d="M201.921 65.3674L202.393 63.7235H204.001V69.3494H202.346C201.661 67.6261 201.236 65.8825 198.683 65.0702C197.336 64.6345 195.091 64.6539 193.578 65.5658C191.049 67.0907 190.742 69.6854 190.812 71.1918C190.907 72.9548 191.427 75.0741 193.885 76.322C195.8 77.2922 197.644 77.3124 199.44 76.5989C200.787 76.0645 201.354 75.1332 201.519 74.103C201.543 74.0043 201.637 72.5976 201.212 72.3206C200.929 72.1425 200.527 72.0631 199.77 72.0825H198.896H198.187V70.8346H206.86V72.0428L206.506 72.0631C206.246 72.0825 204.616 72.0825 204.309 72.3206C204.095 72.4785 204.142 74.0836 204.142 74.0836V78.1044H202.82C202.82 78.1044 201.874 76.6386 201.826 76.6192C199.298 78.4616 196.32 78.6989 193.79 78.085C191.096 77.4112 189.182 75.8264 188.307 73.3702C187.527 71.1318 187.882 68.0811 190.175 65.9019C192.467 63.6838 195.398 63.2675 198.069 63.585C199.581 63.7825 200.362 64.1389 201.921 65.3674Z" fill="white"/>
</g>
</g>
<defs>
<clipPath id="clip0_23_497">
<rect width="260" height="150" fill="white"/>
</clipPath>
</defs>
</svg>
