<svg width="270" height="160" viewBox="0 0 270 160" fill="none" xmlns="http://www.w3.org/2000/svg">
<mask id="mask0_1_4" style="mask-type:luminance" maskUnits="userSpaceOnUse" x="0" y="0" width="270" height="160">
<path d="M0 3.2183e-07H270V160H0V3.2183e-07Z" fill="white"/>
</mask>
<g mask="url(#mask0_1_4)">
<path d="M68.8534 81.4548V87.5047H70.9003C71.2868 87.5047 73.3933 87.4923 74.1208 86.8986C74.7582 86.3529 74.7289 85.2855 74.7289 84.8374V84.5711H75.7225V88.0504C75.7225 88.1232 75.7073 88.1471 75.6628 88.2439C75.6041 88.2687 75.5302 88.2323 75.4553 88.2323H65.2039V87.4807C65.4851 87.4923 66.7468 87.5411 67.0433 87.2988C67.2801 87.1045 67.2355 86.5348 67.2355 86.2678V81.5276C67.2214 80.3758 67.3994 80.1939 65.2039 80.1939V79.43H70.9003V80.2179C68.8241 80.2303 68.8534 80.1088 68.8534 81.4548Z" fill="white"/>
<path d="M78.8203 80.691C78.8203 80.242 78.5238 80.1817 78.1828 80.1693H76.8027V79.4301H78.9245H87.8566V83.0797L87.0552 83.0913L87.0249 82.7399C86.9955 82.3637 86.9065 81.1391 86.179 80.5819C85.6448 80.2057 85.3929 80.2181 84.6806 80.2181H80.6749C80.5565 80.2181 80.4826 80.2296 80.4674 80.376C80.4674 80.376 80.4523 83.2004 80.4674 83.1888L80.5858 83.2608H81.8172C82.2624 83.2608 83.257 83.3947 83.5979 82.897C83.7902 82.5944 83.775 81.6609 83.775 81.6245H84.5763C84.6806 81.6848 84.6654 81.7816 84.6654 81.8791V85.6255C84.6654 85.6371 84.6806 85.8677 84.5763 85.9281C84.3244 85.9405 84.0583 85.9405 83.8064 85.9281C83.775 85.6619 83.7315 84.668 83.3602 84.3886C83.0637 84.1339 81.8465 84.1951 81.7433 84.1951H80.5858C80.4381 84.1951 80.4826 84.4125 80.4826 84.5101V87.2618C80.4968 87.4081 80.5565 87.4197 80.6749 87.4197H83.1973C83.9096 87.4197 85.5558 87.4561 86.2832 86.8748C86.9358 86.3407 87.0552 85.3344 87.0249 84.9591V84.5705H87.8707V88.1961C87.8707 88.3044 87.6188 88.2324 87.5288 88.2324H78.8648H76.8027V87.4685H78.1828C78.5238 87.4561 78.8203 87.3957 78.8203 86.9467V86.2076V81.4302V80.691Z" fill="white"/>
<path d="M93.0753 87.6137C93.0905 87.6261 93.8615 87.6137 93.8615 87.6137V88.2321H88.9219V87.6137C90.1229 87.6137 90.2716 87.5897 91.4584 86.5347L94.5151 83.807C94.4857 83.7342 94.426 83.6854 94.3815 83.6127L91.7104 81.2124C90.3606 79.9755 90.3758 80.1698 89.2922 80.1574V79.4298H95.0038V80.2177H93.7289C92.8082 80.2301 93.2544 80.5691 93.6399 80.9693L95.6715 82.7883L97.943 80.885C98.2536 80.6907 98.4914 80.2062 97.8085 80.2177H96.7997V79.4298H101.607V80.2062C100.005 80.2913 100.434 79.9151 98.713 81.4059L96.6661 83.1521C96.6064 83.2125 96.3252 83.4068 96.399 83.4795L99.6924 86.5471C100.612 87.4318 100.895 87.6261 101.963 87.6137V88.2321H96.1177V87.6137H97.1113C98.4762 87.5773 98.0614 87.0316 97.7933 86.7769L95.3164 84.5098L92.5117 86.8381C92.111 87.1531 91.8146 87.6137 93.0753 87.6137Z" fill="white"/>
<path d="M110.357 80.4848L110.787 79.4297H111.662L111.647 82.7643L111.588 82.8247H110.787C110.283 81.7217 110 80.6791 108.101 80.2301C107.375 80.0482 105.55 79.9754 104.808 80.5939C104.407 80.9329 104.317 81.4546 104.423 81.7936C104.689 82.7519 105.252 82.7759 106.795 83.0066C107.834 83.0677 108.131 83.1397 108.888 83.2612C110.283 83.5762 111.35 83.8069 111.914 84.7768C112.345 85.5044 112.285 86.2436 111.706 86.996C110.934 87.9774 109.363 88.39 108.547 88.414C106.944 88.4752 105.357 87.6136 104.17 86.7405L103.769 88.2321H102.879L102.894 84.7644H103.829C104.867 86.1956 105.074 86.3411 106.663 87.0439C107.805 87.311 109.259 87.3838 110.283 86.547C110.624 86.1708 110.638 86.0617 110.593 85.7227C110.223 84.7644 109.006 84.5585 107.968 84.4006L106.618 84.1831C105.594 84.0128 103.947 83.9888 103.235 82.8123C102.849 82.1698 102.805 81.4794 103.235 80.7394C103.724 79.9027 104.526 79.5637 105.431 79.3933C106.692 79.1635 108.71 79.2602 110.357 80.4848Z" fill="white"/>
<path d="M117.001 84.5587H120.917L119.092 80.8727L117.001 84.5587ZM118.618 79.4299H119.998L123.974 86.6927C124.359 87.4195 124.464 87.4682 125.309 87.541V88.2446H120.947V87.5286H122.089C122.342 87.5286 122.386 87.4558 122.268 87.2376L121.482 85.6856C121.259 85.359 121.304 85.407 120.917 85.407H116.541C116.541 85.407 115.502 87.1772 115.562 87.3591C115.606 87.4922 115.814 87.5046 116.14 87.517H116.956V88.2322H113.187V87.517C113.841 87.517 113.988 87.6377 114.76 86.2677C114.865 86.0858 118.499 79.4902 118.618 79.4299Z" fill="white"/>
<path d="M126.329 79.4298H129.608L136.344 86.4016V81.5035C136.314 80.6907 136.537 80.2913 134.875 80.2665V79.4298H138.525C138.584 79.4298 138.555 80.2665 138.555 80.2665C137.472 80.2913 137.309 80.3029 137.309 81.1521V88.2321H135.751C135.794 88.2809 128.985 81.2728 128.985 81.2728V86.304C129.045 87.6137 128.659 87.5169 130.617 87.5169V88.2445H126.344V87.5169C127.991 87.5285 127.917 87.6013 127.902 86.4255V81.6002C127.902 81.6002 127.961 80.6179 127.783 80.4608C127.56 80.2541 126.537 80.2781 126.329 80.2781V79.4298Z" fill="white"/>
<path d="M143.522 80.2178V87.4806H145.213C146.727 87.4806 148.106 87.4922 149.085 86.1106C149.902 84.9828 149.976 82.9339 149.056 81.6242C147.958 80.0607 146.919 80.169 145.258 80.169H143.551L143.522 80.2178ZM139.634 79.4298H145.807C147.573 79.4298 149.709 79.7449 150.836 81.4423C151.741 82.7884 151.697 84.9216 150.822 86.1593C149.501 87.9891 147.097 88.2322 145.258 88.2322H139.679V87.4806H141.504C141.815 87.4806 141.83 87.3475 141.83 87.2011V86.2925V81.2968V80.5328C141.815 80.3633 141.935 80.145 141.415 80.169H139.634V79.4298Z" fill="white"/>
<path d="M156.131 83.3701L156.204 83.4792H158.326C158.846 83.4792 160.388 83.552 160.997 82.7153C161.323 82.2795 161.308 81.5271 161.027 81.1154C160.373 80.2058 159.201 80.3034 158.429 80.2786H156.739C156.619 80.2786 156.487 80.291 156.412 80.291C156.323 80.291 156.19 80.3034 156.131 80.3877V83.3701ZM152.584 79.4658H158.757C159.662 79.4658 161.739 79.5022 162.6 80.6424C163.059 81.2485 163.074 81.9761 162.703 82.5945C162.198 83.4553 161.605 83.552 160.567 83.8678C162.183 84.5582 162.347 84.6434 162.435 86.0498V86.3524C162.435 86.5228 162.466 87.4199 162.852 87.5894C162.926 87.6382 163.074 87.6621 163.252 87.5654C163.609 87.3595 163.594 86.3409 163.594 86.1102V85.7712C163.875 85.7588 164.142 85.7588 164.41 85.7712C164.484 86.3045 164.632 87.6506 163.741 88.159C163.192 88.4625 162.361 88.4749 161.828 88.2682C160.997 87.9408 160.908 87.0924 160.849 86.5352V86.2077C160.612 84.1953 159.632 84.3036 157.718 84.2432H157.451C157.244 84.2432 157.021 84.2556 156.814 84.2556H156.427L156.353 84.2796H156.278H156.204L156.131 84.3284V86.1466C156.131 86.4012 156.071 87.2495 156.412 87.4323C156.708 87.5894 157.896 87.553 158.163 87.553V88.2442H152.526V87.5654C152.526 87.5654 154.024 87.5654 154.261 87.3711C154.483 87.1892 154.424 86.5955 154.424 86.3648V81.5155C154.424 81.3212 154.513 80.6176 154.053 80.3877C153.771 80.2298 153 80.2298 152.584 80.2298C152.51 80.1455 152.526 79.976 152.526 79.8908V79.527L152.584 79.4658Z" fill="white"/>
<path d="M173.872 80.8122C173.262 80.364 172.64 80.1813 171.883 80.0846C170.934 79.9638 169.524 80.1573 168.575 80.9329C167.27 82.0243 167.106 83.7457 167.373 84.7528C167.714 86.0137 168.768 86.996 170.192 87.4077C171.127 87.6508 171.75 87.6376 172.581 87.4681C176.007 86.5106 176.023 82.3881 173.872 80.8122ZM170.474 79.309C172.165 79.2238 173.945 79.3694 175.608 80.8725C176.824 81.9879 177.239 83.4555 176.75 85.1646C176.096 87.3474 173.916 88.1353 172.685 88.3048C171.2 88.5115 168.917 88.4264 167.359 87.311C165.607 86.0492 165.296 84.5097 165.533 83.2124C165.77 81.8548 166.943 80.4847 168.544 79.7695C169.213 79.4785 169.866 79.3454 170.474 79.309Z" fill="white"/>
<path d="M115.991 97.0781H118.62L117.395 94.605L115.991 97.0781ZM117.076 93.6368H118.002L120.671 98.5101C120.93 98.9988 121 99.031 121.568 99.0806V99.5519H118.64V99.0715H119.407C119.575 99.0715 119.606 99.0236 119.526 98.8772L118.999 97.8354C118.849 97.6147 118.878 97.6477 118.62 97.6477H115.682C115.682 97.6477 114.985 98.8359 115.025 98.9574C115.055 99.0475 115.194 99.0558 115.414 99.0633H115.961V99.5436H113.432V99.0633C113.87 99.0633 113.969 99.1451 114.488 98.2257C114.557 98.1033 116.996 93.6773 117.076 93.6368Z" fill="white"/>
<path d="M124.901 94.1649V99.0398H126.036C127.052 99.0398 127.978 99.0472 128.635 98.1195C129.183 97.363 129.233 95.988 128.616 95.1091C127.879 94.059 127.182 94.1326 126.066 94.1326H124.921L124.901 94.1649ZM122.293 93.6365H126.435C127.62 93.6365 129.054 93.8482 129.811 94.9867C130.418 95.8904 130.388 97.3225 129.801 98.1526C128.915 99.3813 127.301 99.5442 126.066 99.5442H122.322V99.0398H123.547C123.756 99.0398 123.766 98.9497 123.766 98.8521V98.2419V94.8892V94.3765C123.756 94.2624 123.836 94.1161 123.488 94.1326H122.293V93.6365Z" fill="white"/>
<path d="M130.964 93.6367H134.012V94.1816C133.942 94.1899 133.444 94.1899 133.444 94.1899C132.747 94.1899 132.966 94.4173 133.325 95.0605L135.276 98.6241L137.238 95.0605C137.736 94.1328 137.397 94.1899 137.01 94.1899H136.391V93.6367H139.151V94.1899C138.711 94.1981 138.553 94.0592 138.104 94.8968L135.535 99.5518H134.619L131.861 94.7265C131.642 94.3767 131.652 94.2626 131.332 94.1899H130.964V93.6367Z" fill="white"/>
<path d="M144.835 94.5637C144.426 94.2627 144.008 94.1404 143.5 94.075C142.863 93.9948 141.917 94.1247 141.279 94.6456C140.403 95.3773 140.294 96.5332 140.472 97.2087C140.702 98.0554 141.409 98.7143 142.365 98.9905C142.992 99.1534 143.41 99.1451 143.969 99.031C146.269 98.3886 146.279 95.6212 144.835 94.5637ZM142.554 93.555C143.689 93.4979 144.884 93.5955 145.999 94.605C146.816 95.3533 147.094 96.3381 146.766 97.4849C146.328 98.95 144.864 99.4783 144.038 99.5924C143.042 99.7313 141.508 99.6743 140.463 98.9252C139.288 98.0793 139.079 97.0458 139.239 96.1752C139.397 95.264 140.184 94.3438 141.259 93.8642C141.707 93.6691 142.145 93.5798 142.554 93.555Z" fill="white"/>
<path d="M153.406 94.3118L153.606 93.6371H154.283V95.9472H153.586C153.298 95.2395 153.118 94.5234 152.042 94.1902C151.475 94.0108 150.529 94.0191 149.891 94.3936C148.827 95.0195 148.697 96.0861 148.727 96.7046C148.766 97.4289 148.986 98.2987 150.021 98.8113C150.827 99.2107 151.604 99.2189 152.361 98.9254C152.929 98.7055 153.169 98.3235 153.237 97.9002C153.248 97.8597 153.288 97.2817 153.108 97.1676C152.988 97.094 152.82 97.0618 152.5 97.07H152.132H151.833V96.5574H155.489V97.0535L155.339 97.0618C155.23 97.07 154.542 97.07 154.412 97.1676C154.323 97.2329 154.343 97.8919 154.343 97.8919V99.5439H153.785C153.785 99.5439 153.386 98.942 153.367 98.9337C152.301 99.6902 151.047 99.7878 149.981 99.5356C148.846 99.2586 148.039 98.6079 147.671 97.5992C147.343 96.6798 147.491 95.4263 148.458 94.5317C149.423 93.6197 150.658 93.4494 151.783 93.5792C152.421 93.6611 152.75 93.8074 153.406 94.3118Z" fill="white"/>
<path d="M158.494 97.0781H161.124L159.898 94.605L158.494 97.0781ZM159.58 93.6368H160.505L163.175 98.5101C163.434 98.9988 163.503 99.031 164.071 99.0806V99.5519H161.143V99.0715H161.91C162.079 99.0715 162.109 99.0236 162.029 98.8772L161.502 97.8354C161.352 97.6147 161.382 97.6477 161.124 97.6477H158.185C158.185 97.6477 157.488 98.8359 157.529 98.9574C157.558 99.0475 157.698 99.0558 157.917 99.0633H158.465V99.5436H155.935V99.0633C156.373 99.0633 156.472 99.1451 156.991 98.2257C157.06 98.1033 159.5 93.6773 159.58 93.6368Z" fill="white"/>
<path d="M167.405 94.1649V99.0398H168.54C169.556 99.0398 170.481 99.0472 171.138 98.1195C171.686 97.363 171.736 95.988 171.119 95.1091C170.382 94.059 169.685 94.1326 168.569 94.1326H167.425L167.405 94.1649ZM164.796 93.6365H168.938C170.123 93.6365 171.557 93.8482 172.315 94.9867C172.921 95.8904 172.892 97.3225 172.305 98.1526C171.418 99.3813 169.805 99.5442 168.569 99.5442H164.825V99.0398H166.051C166.259 99.0398 166.269 98.9497 166.269 98.8521V98.2419V94.8892V94.3765C166.259 94.2624 166.339 94.1161 165.991 94.1326H164.796V93.6365Z" fill="white"/>
<path d="M179.094 94.5637C178.686 94.2627 178.268 94.1404 177.76 94.075C177.122 93.9948 176.176 94.1247 175.539 94.6456C174.663 95.3773 174.554 96.5332 174.732 97.2087C174.961 98.0554 175.669 98.7143 176.625 98.9905C177.252 99.1534 177.67 99.1451 178.228 99.031C180.528 98.3886 180.538 95.6212 179.094 94.5637ZM176.814 93.555C177.949 93.4979 179.144 93.5955 180.259 94.605C181.076 95.3533 181.354 96.3381 181.026 97.4849C180.588 98.95 179.124 99.4783 178.297 99.5924C177.302 99.7313 175.768 99.6743 174.722 98.9252C173.548 98.0793 173.338 97.0458 173.498 96.1752C173.657 95.264 174.443 94.3438 175.519 93.8642C175.967 93.6691 176.405 93.5798 176.814 93.555Z" fill="white"/>
<path d="M208.305 80.8118C207.696 80.3636 207.074 80.1809 206.317 80.0842C205.368 79.9635 203.957 80.1569 203.008 80.9325C201.703 82.0239 201.539 83.7453 201.806 84.7524C202.147 86.0133 203.202 86.9956 204.625 87.4073C205.56 87.6496 206.183 87.6372 207.015 87.4677C210.441 86.5102 210.456 82.3877 208.305 80.8118ZM204.907 79.3086C206.598 79.2234 208.379 79.369 210.041 80.8721C211.258 81.9875 211.672 83.4551 211.184 85.1642C210.53 87.347 208.35 88.1349 207.118 88.3044C205.634 88.5111 203.35 88.4251 201.792 87.3106C200.041 86.0489 199.729 84.5093 199.967 83.212C200.204 81.8544 201.376 80.4843 202.978 79.7691C203.647 79.4781 204.299 79.345 204.907 79.3086Z" fill="white"/>
<path d="M216.417 79.4294L220.067 86.4739L223.554 79.4294H227.589V80.2297C227.589 80.2297 226.062 80.2297 225.853 80.3876C225.616 80.5571 225.675 81.2963 225.675 81.3931V86.3284C225.675 86.5342 225.646 87.1767 225.839 87.347C226.106 87.5769 227.574 87.5041 227.574 87.5041V88.2441H222.441V87.5281C222.441 87.5281 223.688 87.5041 223.806 87.4313C224.133 87.2494 224.014 86.5706 224.014 86.3647V81.0177L223.94 81.0541L223.909 81.1028L223.865 81.1872L220.424 88.2317H219.162L215.602 81.3451C215.556 81.236 215.542 81.1872 215.438 81.1516C215.424 81.236 215.424 81.3211 215.424 81.4055V86.3284C215.424 86.4375 215.393 87.2255 215.572 87.4074C215.721 87.5645 216.922 87.5165 217.071 87.5281V88.2317H212.352V87.5281C212.619 87.5281 213.718 87.5405 213.851 87.4677C214.177 87.2982 214.133 86.5342 214.133 86.316V81.3931C214.133 81.3451 214.192 80.5571 213.985 80.3876C213.777 80.1933 212.501 80.1809 212.307 80.1809V79.4294H216.417Z" fill="white"/>
<path d="M230.686 80.6906C230.686 80.2416 230.39 80.1813 230.049 80.1689H228.669V79.4297H230.79H239.722V83.0793L238.921 83.0909L238.891 82.7395C238.861 82.3633 238.772 81.1387 238.045 80.5815C237.511 80.2053 237.259 80.2177 236.546 80.2177H232.541C232.422 80.2177 232.348 80.2292 232.333 80.3756C232.333 80.3756 232.318 83.2 232.333 83.1884L232.452 83.2604H233.683C234.128 83.2604 235.123 83.3943 235.464 82.8966C235.656 82.594 235.641 81.6605 235.641 81.6241H236.442C236.546 81.6844 236.531 81.7812 236.531 81.8788V85.6251C236.531 85.6367 236.546 85.8673 236.442 85.9277C236.19 85.9401 235.924 85.9401 235.672 85.9277C235.641 85.6615 235.597 84.6676 235.226 84.3882C234.93 84.1335 233.712 84.1947 233.609 84.1947H232.452C232.304 84.1947 232.348 84.4121 232.348 84.5097V87.2622C232.363 87.4077 232.422 87.4193 232.541 87.4193H235.063C235.775 87.4193 237.422 87.4557 238.149 86.8736C238.802 86.3403 238.921 85.334 238.891 84.9587V84.5701H239.737V88.1957C239.737 88.304 239.485 88.2321 239.395 88.2321H230.731H228.669V87.4681H230.049C230.39 87.4557 230.686 87.3953 230.686 86.9463V86.2072V81.4298V80.6906Z" fill="white"/>
<path d="M248.161 80.4843L248.591 79.4293H249.466L249.451 82.7638L249.393 82.8242H248.591C248.087 81.7212 247.804 80.6786 245.906 80.2296C245.18 80.0477 243.354 79.975 242.613 80.5934C242.212 80.9324 242.122 81.4542 242.227 81.7932C242.493 82.7514 243.057 82.7754 244.6 83.0061C245.639 83.0673 245.936 83.1392 246.692 83.2608C248.087 83.5758 249.155 83.8065 249.718 84.7763C250.149 85.5039 250.09 86.2431 249.511 86.9955C248.739 87.977 247.168 88.3895 246.351 88.4135C244.748 88.4747 243.162 87.6132 241.974 86.74L241.573 88.2316H240.683L240.698 84.7639H241.633C242.671 86.1952 242.879 86.3407 244.467 87.0435C245.61 87.3105 247.063 87.3833 248.087 86.5466C248.428 86.1704 248.443 86.0612 248.398 85.7222C248.028 84.7639 246.811 84.558 245.772 84.4001L244.423 84.1827C243.399 84.0123 241.752 83.9884 241.039 82.8118C240.654 82.1694 240.609 81.479 241.039 80.739C241.529 79.9022 242.33 79.5632 243.236 79.3929C244.497 79.163 246.514 79.2598 248.161 80.4843Z" fill="white"/>
<path d="M42.1357 109.312H41.0946V62.0833H42.1357V109.312Z" fill="#27356F"/>
<path d="M18.3102 69.7102H15.6957L0.806152 102.218H3.12923L8.10219 91.931L8.10321 91.9294L8.53524 90.9802H8.53929L9.39223 89.1223H9.38818L15.4691 75.9329C16.0933 74.5397 16.9463 72.0319 16.9463 72.0319H17.0596C17.0596 72.0319 17.9125 74.5397 18.5378 75.9329L23.9155 87.7076L25.5536 91.282L30.5853 102.218H33.1997L18.3102 69.7102Z" fill="#27356F"/>
<path d="M33.9558 86.6986H31.658H19.7745V88.7243H31.6509C31.0186 94.88 24.6959 99.7335 17.0032 99.7335C8.89164 99.7335 2.29272 94.3401 2.29272 87.7115C2.29272 81.0829 8.89164 75.6903 17.0032 75.6903C23.4392 75.6903 28.9191 79.0869 30.9103 83.8006H33.3153C31.2422 78.0377 24.7161 73.8168 17.0032 73.8168C7.62791 73.8168 0 80.0502 0 87.7115C0 95.3728 7.62791 101.606 17.0032 101.606C26.3785 101.606 34.0054 95.3728 34.0054 87.7115C34.0054 87.3708 33.9851 87.0335 33.9558 86.6986Z" fill="#27356F"/>
<path d="M51.3042 82.6054H57.3041L54.5085 76.9599L51.3042 82.6054ZM53.7811 74.7498H55.8947L61.9857 85.8739C62.5766 86.9884 62.7354 87.0628 64.0305 87.1736V88.251H57.3496V87.1554H59.099C59.4855 87.1554 59.5533 87.0438 59.3722 86.7098L58.1672 84.3327C57.8262 83.8308 57.895 83.9052 57.3041 83.9052H50.6C50.6 83.9052 49.0084 86.6172 49.0995 86.895C49.1683 87.1 49.486 87.1182 49.9858 87.1364H51.2364V88.2328H45.4641V87.1364C46.4638 87.1364 46.6904 87.3225 47.8722 85.224C48.032 84.9453 53.5999 74.8424 53.7811 74.7498Z" fill="white"/>
<path d="M194.155 76.5456L194.609 75.0044H196.155V80.2787H194.563C193.905 78.6631 193.496 77.0285 191.041 76.267C189.746 75.8585 187.587 75.8767 186.132 76.7316C183.701 78.1612 183.405 80.5937 183.473 82.0059C183.564 83.6588 184.064 85.6456 186.428 86.8156C188.269 87.7251 190.042 87.7441 191.769 87.0752C193.064 86.5741 193.609 85.701 193.768 84.7353C193.791 84.6427 193.882 83.3239 193.473 83.0643C193.201 82.8973 192.814 82.8228 192.087 82.841H191.246H190.564V81.6711H198.904V82.8038L198.563 82.8228C198.313 82.841 196.746 82.841 196.45 83.0643C196.245 83.2123 196.291 84.7171 196.291 84.7171V88.4866H195.019C195.019 88.4866 194.109 87.1124 194.064 87.0942C191.632 88.8214 188.769 89.0438 186.337 88.4684C183.746 87.8367 181.906 86.3509 181.064 84.0482C180.314 81.9497 180.655 79.0897 182.86 77.0467C185.065 74.9672 187.883 74.5769 190.451 74.8746C191.904 75.0598 192.655 75.3938 194.155 76.5456Z" fill="white"/>
</g>
</svg>
