<svg width="27" height="30" viewBox="0 0 27 30" fill="none" xmlns="http://www.w3.org/2000/svg">
<g clip-path="url(#clip0_23_383)">
<path d="M13.4998 17.9687C16.9927 17.9687 19.8332 15.3058 19.8332 12.0312C19.8332 8.75672 16.9927 6.09375 13.4998 6.09375C10.007 6.09375 7.1665 8.75672 7.1665 12.0312C7.1665 15.3058 10.007 17.9687 13.4998 17.9687ZM13.4998 9.0625C15.2463 9.0625 16.6665 10.394 16.6665 12.0312C16.6665 13.6685 15.2463 15 13.4998 15C11.7534 15 10.3332 13.6685 10.3332 12.0312C10.3332 10.394 11.7534 9.0625 13.4998 9.0625Z" fill="#27356F"/>
<path d="M12.2486 29.5677C12.5166 29.7471 12.8376 29.8435 13.1669 29.8435C13.4962 29.8435 13.8173 29.7471 14.0853 29.5677C14.5666 29.2485 25.8795 21.5906 25.8336 12.0312C25.8336 5.48367 20.151 0.15625 13.1669 0.15625C6.18285 0.15625 0.500261 5.48367 0.500261 12.0238C0.454345 21.5906 11.7673 29.2485 12.2486 29.5677ZM13.1669 3.125C18.4062 3.125 22.6669 7.11945 22.6669 12.0387C22.7002 18.6263 15.7193 24.5416 13.1669 26.4816C10.6162 24.5401 3.63368 18.6234 3.66693 12.0312C3.66693 7.11945 7.92768 3.125 13.1669 3.125Z" fill="#27356F"/>
</g>
<defs>
<clipPath id="clip0_23_383">
<rect width="26" height="30" fill="white" transform="translate(0.5)"/>
</clipPath>
</defs>
</svg>
