<svg width="80" height="80" viewBox="0 0 80 80" fill="none" xmlns="http://www.w3.org/2000/svg">
<path d="M40 47.5C51.0457 47.5 60 38.5457 60 27.5C60 16.4543 51.0457 7.5 40 7.5C28.9543 7.5 20 16.4543 20 27.5C20 38.5457 28.9543 47.5 40 47.5Z" fill="#F9EBB2"/>
<path d="M40 2.5C26.215 2.5 15 13.715 15 27.5C15 41.285 26.215 52.5 40 52.5C53.785 52.5 65 41.285 65 27.5C65 13.715 53.785 2.5 40 2.5ZM40 50C27.5737 50 17.5 39.9263 17.5 27.5C17.5 15.0737 27.5737 5 40 5C52.4263 5 62.5 15.0737 62.5 27.5C62.5 39.9263 52.4263 50 40 50Z" fill="#F9EBB2"/>
<path d="M25 75L27.5 73.125V51.9825C26.64 51.5412 25.8062 51.0575 25 50.5312V75Z" fill="#45AAB8"/>
<path d="M30 53.1088V71.25L38.5 64.875L40 63.75L41.5 64.875L50 71.25V53.1088C46.8988 54.325 43.5275 55 40 55C36.4725 55 33.1012 54.325 30 53.1088Z" fill="#45AAB8"/>
<path d="M52.5 51.9825V73.125L55 75V50.5312C54.1938 51.0575 53.36 51.5412 52.5 51.9825Z" fill="#45AAB8"/>
<path d="M40 0C24.8363 0 12.5 12.3363 12.5 27.5C12.5 36.02 16.3963 43.65 22.5 48.6975V75C22.5 75.9475 23.035 76.8125 23.8812 77.2363C24.235 77.4137 24.6175 77.5 24.9975 77.5C25.53 77.5 26.0575 77.33 26.5 77L40 66.875L53.5 77C53.9425 77.3312 54.4688 77.5 55 77.5C55.3812 77.5 55.7638 77.4137 56.1188 77.2363C56.965 76.8125 57.5 75.9475 57.5 75V48.6975C63.6037 43.65 67.5 36.02 67.5 27.5C67.5 12.3363 55.1637 0 40 0ZM27.5 73.125L25 75V50.5312C25.8062 51.0575 26.64 51.5425 27.5 51.9825V73.125ZM50 71.25L41.5 64.875L40 63.75L38.5 64.875L30 71.25V53.1087C33.1012 54.325 36.4725 55 40 55C43.5275 55 46.8988 54.325 50 53.1087V71.25ZM55 75L52.5 73.125V51.9825C53.36 51.5412 54.1937 51.0575 55 50.5312V75ZM40 52.5C26.215 52.5 15 41.285 15 27.5C15 13.715 26.215 2.5 40 2.5C53.785 2.5 65 13.715 65 27.5C65 41.285 53.785 52.5 40 52.5Z" fill="#394240"/>
<path d="M40 5C27.5938 5 17.5 15.0938 17.5 27.5C17.5 39.9062 27.5938 50 40 50C52.4062 50 62.5 39.9062 62.5 27.5C62.5 15.0938 52.4062 5 40 5ZM40 47.5C28.9725 47.5 20 38.5275 20 27.5C20 16.4725 28.9725 7.5 40 7.5C51.0275 7.5 60 16.4725 60 27.5C60 38.5275 51.0275 47.5 40 47.5Z" fill="#394240"/>
<path d="M48.9337 24.2012L43.5475 23.3787L41.1275 18.225C40.9212 17.785 40.48 17.5062 39.9962 17.5062C39.5125 17.5062 39.0712 17.7862 38.865 18.225L36.445 23.3787L31.0587 24.2012C30.5962 24.2725 30.2112 24.595 30.0625 25.04C29.9137 25.485 30.0262 25.9737 30.3525 26.31L34.285 30.3437L33.3537 36.0487C33.2762 36.5212 33.4775 36.9962 33.8675 37.2725C34.2575 37.5487 34.7737 37.5762 35.1937 37.345L39.995 34.69L44.7962 37.345C44.9875 37.4487 45.1962 37.5 45.4037 37.5C45.6562 37.5 45.9087 37.4225 46.1237 37.2712C46.5137 36.995 46.715 36.52 46.6375 36.0475L45.7062 30.3425L49.6387 26.3087C49.9662 25.9725 50.0787 25.4837 49.9287 25.0387C49.7787 24.5937 49.3975 24.2725 48.9337 24.2012ZM43.4762 29.0487C43.1987 29.3337 43.0737 29.7312 43.1375 30.1225L43.7562 33.9087L40.6037 32.165C40.415 32.0612 40.2075 32.0087 39.9987 32.0087C39.79 32.0087 39.5825 32.0612 39.3937 32.165L36.2412 33.9087L36.86 30.1225C36.9237 29.7312 36.7975 29.3325 36.5212 29.0487L33.845 26.3062L37.4862 25.75C37.8975 25.6875 38.2512 25.4237 38.4287 25.0462L40 21.6987L41.5712 25.0462C41.7487 25.425 42.1025 25.6887 42.5137 25.75L46.155 26.3062L43.4762 29.0487Z" fill="#394240"/>
<g opacity="0.2">
<path d="M25 75L27.5 73.125V51.9825C26.64 51.5412 25.8062 51.0575 25 50.5312V75Z" fill="#231F20"/>
<path d="M52.5 51.9825V73.125L55 75V50.5312C54.1938 51.0575 53.36 51.5412 52.5 51.9825Z" fill="#231F20"/>
</g>
<path opacity="0.15" d="M40 2.5C26.215 2.5 15 13.715 15 27.5C15 41.285 26.215 52.5 40 52.5C53.785 52.5 65 41.285 65 27.5C65 13.715 53.785 2.5 40 2.5ZM40 50C27.5737 50 17.5 39.9263 17.5 27.5C17.5 15.0737 27.5737 5 40 5C52.4263 5 62.5 15.0737 62.5 27.5C62.5 39.9263 52.4263 50 40 50Z" fill="#231F20"/>
<path d="M43.4762 29.0487C43.1987 29.3337 43.0737 29.7312 43.1375 30.1225L43.7562 33.9087L40.6037 32.165C40.415 32.0612 40.2075 32.0087 39.9987 32.0087C39.79 32.0087 39.5825 32.0612 39.3937 32.165L36.2412 33.9087L36.86 30.1225C36.9237 29.7312 36.7975 29.3325 36.5212 29.0487L33.845 26.3062L37.4862 25.75C37.8975 25.6875 38.2512 25.4237 38.4287 25.0462L40 21.6987L41.5712 25.0462C41.7487 25.425 42.1025 25.6887 42.5137 25.75L46.155 26.3062L43.4762 29.0487Z" fill="#5771F7"/>
</svg>
