<svg width="80" height="80" viewBox="0 0 80 80" fill="none" xmlns="http://www.w3.org/2000/svg">
<path fill-rule="evenodd" clip-rule="evenodd" d="M12.414 28.1731L24.2959 23.9795C21.8427 27.2823 19.7352 30.8295 18.0071 34.5654L12.414 28.1731ZM4.15807 28.8617L15.1662 41.4424L13.5717 45.4287C13.0765 46.6667 13.3668 48.0807 14.3096 49.0237L15.355 50.069C9.67807 56.4704 6.54234 63.1654 3.50441 72.2794C3.10514 73.477 3.41687 74.7977 4.30964 75.6904C5.20244 76.583 6.52297 76.895 7.72077 76.4957C16.8346 73.4577 23.5296 70.322 29.9309 64.645L30.9763 65.6904C31.9192 66.6334 33.3332 66.9234 34.5713 66.4284L38.5577 64.8337L51.1383 75.842C51.9703 76.57 53.109 76.838 54.1783 76.5577C55.248 76.2774 56.1087 75.4854 56.4767 74.4427L66.4303 46.2407C72.9923 38.476 76.6667 28.5827 76.6667 18.2693V6.66671C76.6667 4.82577 75.1743 3.33337 73.3333 3.33337H61.7307C51.4173 3.33337 41.524 7.00754 33.7593 13.5697L5.55727 23.5234C4.51481 23.8913 3.72254 24.7522 3.44227 25.8216C3.16197 26.891 3.43011 28.0297 4.15807 28.8617ZM12.2842 67.7157C14.3759 62.664 16.7233 58.643 20.0785 54.7927L25.2074 59.9214C21.3571 63.2767 17.3361 65.624 12.2842 67.7157ZM34.136 59.422L32.357 57.643L22.357 47.643L20.5779 45.864L22.9442 39.948C25.1155 34.52 28.1645 29.4856 31.9693 25.0467L33.8913 22.8043C40.8573 14.6773 51.0267 10 61.7307 10H70V18.2693C70 28.9732 65.3227 39.1427 57.1957 46.1087L54.9533 48.0307C50.5143 51.8354 45.48 54.8844 40.052 57.0557L34.136 59.422ZM51.827 67.586L45.4347 61.993C49.1707 60.265 52.7177 58.1574 56.0207 55.704L51.827 67.586ZM50 26.6667C50 24.8258 51.4923 23.3334 53.3333 23.3334C55.1743 23.3334 56.6667 24.8258 56.6667 26.6667C56.6667 28.5076 55.1743 30 53.3333 30C51.4923 30 50 28.5076 50 26.6667ZM53.3333 16.6667C47.8103 16.6667 43.3333 21.1439 43.3333 26.6667C43.3333 32.1895 47.8103 36.6667 53.3333 36.6667C58.8563 36.6667 63.3333 32.1895 63.3333 26.6667C63.3333 21.1439 58.8563 16.6667 53.3333 16.6667Z" fill="white"/>
</svg>
