<svg width="80" height="80" viewBox="0 0 80 80" fill="none" xmlns="http://www.w3.org/2000/svg">
<path d="M22.5 40H20V61.25H22.5V40Z" fill="#5C546A"/>
<path d="M20 38.75H16.25C15.5597 38.75 15 38.1903 15 37.5V30C15 29.3097 15.5597 28.75 16.25 28.75H20V38.75Z" fill="#8A8895"/>
<path d="M50.5665 0H30.9432C28.1042 0 25.7176 1.96938 25.0748 4.61313C19.8785 5.27359 15.8484 9.72235 15.8484 15.0947V22.642C15.8484 26.5322 17.4998 30.1613 20.3768 32.7405V24.1516C20.3768 19.9902 23.7628 16.6042 27.9242 16.6042H53.5853C56.9153 16.6042 59.6232 19.3128 59.6232 22.6422V32.7389C62.5009 30.1603 64.1517 26.5313 64.1517 22.6422V13.5853C64.1517 6.09469 58.0578 0 50.5665 0Z" fill="#7E5C62"/>
<path d="M40 54.3413C34.7275 54.3413 29.7795 51.1569 26.25 47.5C26.25 47.1875 26.25 52.7864 26.25 53.75C26.6311 53.983 26.4278 56.7 26.4855 57.176C27.2388 63.3053 33.0481 67.9266 40 67.9266C46.9503 67.9266 52.7598 63.3045 53.5145 57.176C53.573 56.6994 53.3631 53.9824 53.75 53.75C53.75 51.1458 53.75 49.0886 53.75 47.5C50.2205 51.1567 45.2725 54.3413 40 54.3413Z" fill="#FCC78D"/>
<path d="M53.2911 48.7003C49.7911 52.1866 45.132 54.3412 40 54.3412C34.7275 54.3412 29.7795 51.1569 26.25 47.5C26.25 49.103 26.25 54.7395 26.25 53.75C26.6311 53.983 26.4278 56.7 26.4855 57.1759C26.8184 59.8853 28.1417 62.2975 30.1125 64.1486C39.2011 62.8686 49.5166 53.8942 53.2911 48.7003Z" fill="#FFB87F"/>
<path d="M22.5 41.25H18.75C18.0597 41.25 17.5 40.6903 17.5 40V27.5C17.5 26.8097 18.0597 26.25 18.75 26.25H22.5V41.25Z" fill="#5C546A"/>
<path d="M60 38.75H63.75C64.4403 38.75 65 38.1903 65 37.5V30C65 29.3097 64.4403 28.75 63.75 28.75H60V38.75Z" fill="#8A8895"/>
<path d="M57.5 41.25H61.25C61.9403 41.25 62.5 40.6903 62.5 40V27.5C62.5 26.8097 61.9403 26.25 61.25 26.25H57.5V41.25Z" fill="#5C546A"/>
<path d="M53.5854 16.6042H27.9243C23.7629 16.6042 20.377 19.9902 20.377 24.1516V33.2085C20.377 44.8613 29.1802 54.3411 40.0001 54.3411C50.8199 54.3411 59.6232 44.8611 59.6232 33.2085V22.6422C59.6232 19.313 56.9154 16.6042 53.5854 16.6042Z" fill="#FFE0B1"/>
<path d="M50.6251 48.6426C47.6051 48.6426 44.5082 47.2876 41.6554 44.6711C41.1464 44.2048 41.1121 43.4137 41.5785 42.9053C42.046 42.3943 42.8384 42.3626 43.345 42.829C46.4981 45.7197 49.911 46.7651 52.9665 45.7679C55.956 44.7914 58.3389 41.91 59.0346 38.4273C59.1689 37.7511 59.8195 37.3086 60.5056 37.4465C61.1818 37.5814 61.6214 38.24 61.4857 38.9168C60.6154 43.2704 57.5759 46.8923 53.7415 48.1448C52.7223 48.4778 51.6785 48.6426 50.6251 48.6426Z" fill="#5C546A"/>
<path d="M42.5 46.25C43.8807 46.25 45 45.1307 45 43.75C45 42.3693 43.8807 41.25 42.5 41.25C41.1193 41.25 40 42.3693 40 43.75C40 45.1307 41.1193 46.25 42.5 46.25Z" fill="#8A8895"/>
<path d="M67.2905 60.6859L58.75 58.6764L40 68.75L21.25 58.6764L12.7095 60.6859C8.1925 61.7487 5 65.7797 5 70.4201V76.25C5 78.3211 6.67891 80 8.75 80H71.25C73.3211 80 75 78.3211 75 76.25V70.4201C75 65.7797 71.8075 61.7487 67.2905 60.6859Z" fill="#527991"/>
<path d="M41.25 67.5H38.75V80H41.25V67.5Z" fill="#5C546A"/>
<path d="M40 67.5L32.4352 74.1192C31.2033 75.1972 29.2848 74.82 28.5528 73.3558L21.25 58.75L26.25 53.75L40 67.5Z" fill="#5D647F"/>
<path d="M40 67.5L47.5648 74.1192C48.7967 75.1972 50.7152 74.82 51.4472 73.3558L58.75 58.75L53.75 53.75L40 67.5Z" fill="#5D647F"/>
</svg>
