<svg width="55" height="55" viewBox="0 0 55 55" fill="none" xmlns="http://www.w3.org/2000/svg">
<g clip-path="url(#clip0_20_36)">
<path d="M15.4688 3.4375C15.4688 2.48875 16.2388 1.71875 17.1875 1.71875H37.8125C38.7612 1.71875 39.5312 2.48875 39.5312 3.4375V11.1719H37.8125V4.29688C37.8125 3.82164 37.4284 3.4375 36.9531 3.4375H18.0469C17.5716 3.4375 17.1875 3.82164 17.1875 4.29688V11.1719H15.4688V3.4375Z" fill="#B4CCB9"/>
<path d="M51.5625 11.1719H41.25V3.4375C41.25 1.53742 39.7126 0 37.8125 0H17.1875C15.2874 0 13.75 1.53742 13.75 3.4375V11.1719H3.4375C1.53742 11.1719 0 12.7093 0 14.6094V51.5625C0 53.4626 1.53742 55 3.4375 55H51.5625C53.4626 55 55 53.4626 55 51.5625V14.6094C55 12.7093 53.4626 11.1719 51.5625 11.1719ZM15.4688 3.4375C15.4688 2.48875 16.2388 1.71875 17.1875 1.71875H37.8125C38.7612 1.71875 39.5312 2.48875 39.5312 3.4375V11.1719H37.8125V4.29688C37.8125 3.82164 37.4284 3.4375 36.9531 3.4375H18.0469C17.5716 3.4375 17.1875 3.82164 17.1875 4.29688V11.1719H15.4688V3.4375ZM36.0938 5.15625V11.1719H18.9062V5.15625H36.0938ZM53.2812 51.5625C53.2812 52.5112 52.5112 53.2812 51.5625 53.2812H3.4375C2.48875 53.2812 1.71875 52.5112 1.71875 51.5625V36.0938H10.3125V40.3906C10.3125 40.8659 10.6966 41.25 11.1719 41.25H16.3281C16.8034 41.25 17.1875 40.8659 17.1875 40.3906V36.0938H37.8125V40.3906C37.8125 40.8659 38.1966 41.25 38.6719 41.25H43.8281C44.3034 41.25 44.6875 40.8659 44.6875 40.3906V36.0938H53.2812V51.5625ZM12.0312 39.5312V36.0938V34.375V30.9375H15.4688V34.375V36.0938V39.5312H12.0312ZM39.5312 39.5312V36.0938V34.375V30.9375H42.9688V34.375V36.0938V39.5312H39.5312ZM53.2812 34.375H44.6875V30.0781C44.6875 29.6029 44.3034 29.2188 43.8281 29.2188H38.6719C38.1966 29.2188 37.8125 29.6029 37.8125 30.0781V34.375H17.1875V30.0781C17.1875 29.6029 16.8034 29.2188 16.3281 29.2188H11.1719C10.6966 29.2188 10.3125 29.6029 10.3125 30.0781V34.375H1.71875V14.6094C1.71875 13.6606 2.48875 12.8906 3.4375 12.8906H51.5625C52.5112 12.8906 53.2812 13.6606 53.2812 14.6094V34.375Z" fill="#394240"/>
<path d="M42.9688 30.9375H39.5312V39.5312H42.9688V30.9375Z" fill="#F9EBB2"/>
<path d="M15.4688 30.9375H12.0312V39.5312H15.4688V30.9375Z" fill="#F9EBB2"/>
<path d="M51.5625 53.2812C52.5112 53.2812 53.2812 52.5112 53.2812 51.5625V36.0938H44.6875V40.3906C44.6875 40.8659 44.3034 41.25 43.8281 41.25H38.6719C38.1966 41.25 37.8125 40.8659 37.8125 40.3906V36.0938H17.1875V40.3906C17.1875 40.8659 16.8034 41.25 16.3281 41.25H11.1719C10.6966 41.25 10.3125 40.8659 10.3125 40.3906V36.0938H1.71875V51.5625C1.71875 52.5112 2.48875 53.2812 3.4375 53.2812H51.5625Z" fill="#F0DC82"/>
<path d="M51.5625 12.8906H3.4375C2.48875 12.8906 1.71875 13.6606 1.71875 14.6094V34.375H10.3125V30.0781C10.3125 29.6029 10.6966 29.2188 11.1719 29.2188H16.3281C16.8034 29.2188 17.1875 29.6029 17.1875 30.0781V34.375H37.8125V30.0781C37.8125 29.6029 38.1966 29.2188 38.6719 29.2188H43.8281C44.3034 29.2188 44.6875 29.6029 44.6875 30.0781V34.375H53.2812V14.6094C53.2812 13.6606 52.5112 12.8906 51.5625 12.8906Z" fill="#F0DC82"/>
<path opacity="0.2" d="M51.5625 53.2812C52.5112 53.2812 53.2812 52.5112 53.2812 51.5625V36.0938H44.6875V40.3906C44.6875 40.8659 44.3034 41.25 43.8281 41.25H38.6719C38.1966 41.25 37.8125 40.8659 37.8125 40.3906V36.0938H17.1875V40.3906C17.1875 40.8659 16.8034 41.25 16.3281 41.25H11.1719C10.6966 41.25 10.3125 40.8659 10.3125 40.3906V36.0938H1.71875V51.5625C1.71875 52.5112 2.48875 53.2812 3.4375 53.2812H51.5625Z" fill="black"/>
</g>
<defs>
<clipPath id="clip0_20_36">
<rect width="55" height="55" fill="white"/>
</clipPath>
</defs>
</svg>
