<svg width="35" height="35" viewBox="0 0 35 35" fill="none" xmlns="http://www.w3.org/2000/svg">
<g clip-path="url(#clip0_37_24)">
<path fill-rule="evenodd" clip-rule="evenodd" d="M30.0666 5.08607C26.8056 1.81938 22.3665 -0.0122166 17.7398 6.13322e-05C8.1337 6.13322e-05 0.315831 7.77958 0.312489 17.342C0.308386 20.3854 1.1108 23.376 2.63879 26.0122L0.16626 35L9.40465 32.5884C11.9595 33.9739 14.8227 34.6998 17.7323 34.6998H17.7398C27.3442 34.6998 35.1628 26.9194 35.1662 17.357C35.1811 12.7531 33.3448 8.33451 30.0666 5.08607ZM25.6846 20.9702C25.2493 20.7532 23.1085 19.7055 22.7091 19.5565C22.3097 19.4077 22.0197 19.3395 21.7298 19.7736C21.4399 20.2077 20.6051 21.1832 20.3511 21.4726C20.0971 21.7619 19.843 21.7976 19.4076 21.5807C18.9722 21.3636 17.5693 20.9062 15.9057 19.4302C14.6113 18.2809 13.7331 16.8622 13.4824 16.4281C13.2317 15.994 13.4556 15.7628 13.6737 15.5432C13.8693 15.3495 14.1091 15.0376 14.3263 14.7841C14.5436 14.5304 14.6171 14.3508 14.7616 14.0614C14.9063 13.772 14.8343 13.5192 14.7257 13.3022C14.6171 13.0851 13.7456 10.9521 13.3829 10.0848C13.0295 9.23985 12.671 9.35378 12.4036 9.33631C12.1529 9.32384 11.8588 9.32135 11.568 9.32135C11.1218 9.33296 10.7008 9.52951 10.4065 9.86355C10.008 10.2976 8.88324 11.3454 8.88324 13.4785C8.88324 15.6115 10.4433 17.6721 10.6606 17.9615C10.8778 18.251 13.7314 22.6276 18.0974 24.5053C18.9083 24.8534 19.7369 25.1587 20.58 25.4201C21.6228 25.7527 22.572 25.7037 23.3224 25.5923C24.158 25.4675 25.8986 24.5436 26.262 23.5315C26.6255 22.5195 26.6248 21.6513 26.5128 21.4709C26.4008 21.2904 26.12 21.1906 25.6846 20.9736V20.9702Z" fill="#27356F"/>
</g>
<defs>
<clipPath id="clip0_37_24">
<rect width="35" height="35" fill="white"/>
</clipPath>
</defs>
</svg>
