<svg width="55" height="55" viewBox="0 0 55 55" fill="none" xmlns="http://www.w3.org/2000/svg">
<path fill-rule="evenodd" clip-rule="evenodd" d="M2.8645 16.6145C2.8645 9.02058 9.02058 2.8645 16.6145 2.8645H38.3853C45.9792 2.8645 52.1353 9.02058 52.1353 16.6145V38.3853C52.1353 45.9792 45.9792 52.1353 38.3853 52.1353H16.6145C9.02058 52.1353 2.8645 45.9792 2.8645 38.3853V16.6145ZM37.8401 28.6153C31.561 23.767 23.4567 23.767 17.1777 28.6153C16.4263 29.1953 15.3469 29.0564 14.7668 28.3052C14.1867 27.5538 14.3255 26.4744 15.0769 25.8944C22.5936 20.0907 32.4243 20.0907 39.9409 25.8944C40.6924 26.4744 40.831 27.5538 40.251 28.3052C39.6707 29.0564 38.5916 29.1953 37.8401 28.6153ZM12.5089 23.0325C21.6113 16.0029 33.3888 16.0029 42.4913 23.0325C43.2425 23.6128 44.3219 23.4741 44.9021 22.7228C45.4824 21.9715 45.3438 20.8921 44.5923 20.3119C34.2523 12.3265 20.7479 12.3265 10.4078 20.3119C9.65652 20.8921 9.51783 21.9715 10.098 22.7228C10.6782 23.4741 11.7576 23.6128 12.5089 23.0325ZM34.7893 34.4689C30.3558 31.0348 24.6285 31.0348 20.1949 34.4689C19.4444 35.0503 18.3649 34.9132 17.7836 34.1627C17.2023 33.4122 17.3394 32.3326 18.0898 31.7514C23.7627 27.3574 31.2216 27.3574 36.8944 31.7514C37.6447 32.3326 37.7819 33.4122 37.2005 34.1627C36.6194 34.9132 35.5398 35.0503 34.7893 34.4689ZM27.4999 36.6666C25.6015 36.6666 24.0624 38.2057 24.0624 40.1041C24.0624 42.0025 25.6015 43.5416 27.4999 43.5416H27.5171C29.4155 43.5416 30.9546 42.0025 30.9546 40.1041C30.9546 38.2057 29.4155 36.6666 27.5171 36.6666H27.4999Z" fill="#F9EBB2"/>
</svg>
